<svg xmlns="http://www.w3.org/2000/svg" xmlns:xlink="http://www.w3.org/1999/xlink" contentStyleType="text/css" height="1016px" preserveAspectRatio="none" style="width:747px;height:1016px;background:#FFFFFF;" version="1.1" viewBox="0 0 747 1016" width="747px" zoomAndPan="magnify"><defs/><g><ellipse cx="373.5352" cy="20" fill="#222222" rx="10" ry="10" style="stroke:#222222;stroke-width:1.0;"/><rect fill="#F1F1F1" height="33.9688" rx="12.5" ry="12.5" style="stroke:#181818;stroke-width:0.5;" width="49.3145" x="348.8779" y="50"/><text fill="#000000" font-family="sans-serif" font-size="12" lengthAdjust="spacing" textLength="29.3145" x="358.8779" y="71.1387">Start</text><rect fill="#F1F1F1" height="33.9688" rx="12.5" ry="12.5" style="stroke:#181818;stroke-width:0.5;" width="157.4961" x="294.7871" y="103.9688"/><text fill="#000000" font-family="sans-serif" font-size="12" lengthAdjust="spacing" textLength="137.4961" x="304.7871" y="125.1074">Get to know eachother</text><rect fill="#F1F1F1" height="33.9688" rx="12.5" ry="12.5" style="stroke:#181818;stroke-width:0.5;" width="174.793" x="286.1387" y="157.9375"/><text fill="#000000" font-family="sans-serif" font-size="12" lengthAdjust="spacing" textLength="154.793" x="296.1387" y="179.0762">Dive in to the assignment</text><rect fill="#F1F1F1" height="33.9688" rx="12.5" ry="12.5" style="stroke:#181818;stroke-width:0.5;" width="207.3008" x="269.8848" y="211.9063"/><text fill="#000000" font-family="sans-serif" font-size="12" lengthAdjust="spacing" textLength="187.3008" x="279.8848" y="233.0449">Give each team member a role</text><rect fill="#F1F1F1" height="33.9688" rx="12.5" ry="12.5" style="stroke:#181818;stroke-width:0.5;" width="176.2754" x="285.3975" y="265.875"/><text fill="#000000" font-family="sans-serif" font-size="12" lengthAdjust="spacing" textLength="156.2754" x="295.3975" y="287.0137">Plan a meeting with client</text><rect fill="#F1F1F1" height="33.9688" rx="12.5" ry="12.5" style="stroke:#181818;stroke-width:0.5;" width="153.0547" x="297.0078" y="319.8438"/><text fill="#000000" font-family="sans-serif" font-size="12" lengthAdjust="spacing" textLength="133.0547" x="307.0078" y="340.9824">Get to know the client</text><rect fill="#F1F1F1" height="33.9688" rx="12.5" ry="12.5" style="stroke:#181818;stroke-width:0.5;" width="319.5195" x="213.7754" y="373.8125"/><text fill="#000000" font-family="sans-serif" font-size="12" lengthAdjust="spacing" textLength="299.5195" x="223.7754" y="394.9512">Ask client to tell something about the assignment</text><rect fill="#555555" height="6" rx="2.5" ry="2.5" style="stroke:#555555;stroke-width:1.0;" width="725.0703" x="11" y="427.7813"/><rect fill="#F1F1F1" height="33.9688" rx="12.5" ry="12.5" style="stroke:#181818;stroke-width:0.5;" width="177.7109" x="51.8633" y="618.7188"/><text fill="#000000" font-family="sans-serif" font-size="12" lengthAdjust="spacing" textLength="157.7109" x="61.8633" y="639.8574">Write down unclear points</text><rect fill="#F1F1F1" height="33.9688" rx="12.5" ry="12.5" style="stroke:#181818;stroke-width:0.5;" width="233.3457" x="24.0459" y="672.6875"/><text fill="#000000" font-family="sans-serif" font-size="12" lengthAdjust="spacing" textLength="213.3457" x="34.0459" y="693.8262">Update progress of project to client</text><rect fill="#F1F1F1" height="33.9688" rx="12.5" ry="12.5" style="stroke:#181818;stroke-width:0.5;" width="235.4375" x="23" y="726.6563"/><text fill="#000000" font-family="sans-serif" font-size="12" lengthAdjust="spacing" textLength="215.4375" x="33" y="747.7949">Aks client to clearafy unclear points</text><polygon fill="#F1F1F1" points="140.7188,561.7188,152.7188,573.7188,140.7188,585.7188,128.7188,573.7188,140.7188,561.7188" style="stroke:#181818;stroke-width:0.5;"/><polygon fill="#F1F1F1" points="98.6201,793.625,182.8174,793.625,194.8174,805.625,182.8174,817.625,98.6201,817.625,86.6201,805.625,98.6201,793.625" style="stroke:#181818;stroke-width:0.5;"/><text fill="#000000" font-family="sans-serif" font-size="11" lengthAdjust="spacing" textLength="84.1973" x="98.6201" y="809.4331">unclear points?</text><rect fill="#F1F1F1" height="33.9688" rx="12.5" ry="12.5" style="stroke:#181818;stroke-width:0.5;" width="181.2148" x="426.6465" y="453.7813"/><text fill="#000000" font-family="sans-serif" font-size="12" lengthAdjust="spacing" textLength="161.2148" x="436.6465" y="474.9199">Write requirements in ADR</text><rect fill="#F1F1F1" height="33.9688" rx="12.5" ry="12.5" style="stroke:#181818;stroke-width:0.5;" width="194.8848" x="419.8115" y="507.75"/><text fill="#000000" font-family="sans-serif" font-size="12" lengthAdjust="spacing" textLength="174.8848" x="429.8115" y="528.8887">Divide system in subsystems</text><rect fill="#F1F1F1" height="33.9688" rx="12.5" ry="12.5" style="stroke:#181818;stroke-width:0.5;" width="219.5645" x="407.4717" y="564.75"/><text fill="#000000" font-family="sans-serif" font-size="12" lengthAdjust="spacing" textLength="199.5645" x="417.4717" y="585.8887">Make diagram of the subsystems</text><rect fill="#F1F1F1" height="33.9688" rx="12.5" ry="12.5" style="stroke:#181818;stroke-width:0.5;" width="274.0625" x="380.2227" y="618.7188"/><text fill="#000000" font-family="sans-serif" font-size="12" lengthAdjust="spacing" textLength="254.0625" x="390.2227" y="639.8574">Divide subsystems among team members</text><rect fill="#F1F1F1" height="33.9688" rx="12.5" ry="12.5" style="stroke:#181818;stroke-width:0.5;" width="413.6328" x="310.4375" y="672.6875"/><text fill="#000000" font-family="sans-serif" font-size="12" lengthAdjust="spacing" textLength="393.6328" x="320.4375" y="693.8262">Hold meetings to make sure that interface are clear for members</text><rect fill="#F1F1F1" height="33.9688" rx="12.5" ry="12.5" style="stroke:#181818;stroke-width:0.5;" width="221.2402" x="406.6338" y="726.6563"/><text fill="#000000" font-family="sans-serif" font-size="12" lengthAdjust="spacing" textLength="201.2402" x="416.6338" y="747.7949">Combine solutions of subsystems</text><rect fill="#F1F1F1" height="33.9688" rx="12.5" ry="12.5" style="stroke:#181818;stroke-width:0.5;" width="132.2656" x="451.1211" y="780.625"/><text fill="#000000" font-family="sans-serif" font-size="12" lengthAdjust="spacing" textLength="112.2656" x="461.1211" y="801.7637">Order components</text><rect fill="#F1F1F1" height="33.9688" rx="12.5" ry="12.5" style="stroke:#181818;stroke-width:0.5;" width="97.3203" x="468.5938" y="837.625"/><text fill="#000000" font-family="sans-serif" font-size="12" lengthAdjust="spacing" textLength="77.3203" x="478.5938" y="858.7637">Build system</text><rect fill="#F1F1F1" height="33.9688" rx="12.5" ry="12.5" style="stroke:#181818;stroke-width:0.5;" width="92.8672" x="470.8203" y="891.5938"/><text fill="#000000" font-family="sans-serif" font-size="12" lengthAdjust="spacing" textLength="72.8672" x="480.8203" y="912.7324">Test system</text><rect fill="#555555" height="6" rx="2.5" ry="2.5" style="stroke:#555555;stroke-width:1.0;" width="725.0703" x="11" y="945.5625"/><rect fill="#F1F1F1" height="33.9688" rx="12.5" ry="12.5" style="stroke:#181818;stroke-width:0.5;" width="271.7305" x="237.6699" y="971.5625"/><text fill="#000000" font-family="sans-serif" font-size="12" lengthAdjust="spacing" textLength="251.7305" x="247.6699" y="992.7012">Write down results and recommendations</text><line style="stroke:#181818;stroke-width:1.0;" x1="373.5352" x2="373.5352" y1="30" y2="50"/><polygon fill="#181818" points="369.5352,40,373.5352,50,377.5352,40,373.5352,44" style="stroke:#181818;stroke-width:1.0;"/><line style="stroke:#181818;stroke-width:1.0;" x1="373.5352" x2="373.5352" y1="83.9688" y2="103.9688"/><polygon fill="#181818" points="369.5352,93.9688,373.5352,103.9688,377.5352,93.9688,373.5352,97.9688" style="stroke:#181818;stroke-width:1.0;"/><line style="stroke:#181818;stroke-width:1.0;" x1="373.5352" x2="373.5352" y1="137.9375" y2="157.9375"/><polygon fill="#181818" points="369.5352,147.9375,373.5352,157.9375,377.5352,147.9375,373.5352,151.9375" style="stroke:#181818;stroke-width:1.0;"/><line style="stroke:#181818;stroke-width:1.0;" x1="373.5352" x2="373.5352" y1="191.9063" y2="211.9063"/><polygon fill="#181818" points="369.5352,201.9063,373.5352,211.9063,377.5352,201.9063,373.5352,205.9063" style="stroke:#181818;stroke-width:1.0;"/><line style="stroke:#181818;stroke-width:1.0;" x1="373.5352" x2="373.5352" y1="245.875" y2="265.875"/><polygon fill="#181818" points="369.5352,255.875,373.5352,265.875,377.5352,255.875,373.5352,259.875" style="stroke:#181818;stroke-width:1.0;"/><line style="stroke:#181818;stroke-width:1.0;" x1="373.5352" x2="373.5352" y1="299.8438" y2="319.8438"/><polygon fill="#181818" points="369.5352,309.8438,373.5352,319.8438,377.5352,309.8438,373.5352,313.8438" style="stroke:#181818;stroke-width:1.0;"/><line style="stroke:#181818;stroke-width:1.0;" x1="373.5352" x2="373.5352" y1="353.8125" y2="373.8125"/><polygon fill="#181818" points="369.5352,363.8125,373.5352,373.8125,377.5352,363.8125,373.5352,367.8125" style="stroke:#181818;stroke-width:1.0;"/><line style="stroke:#181818;stroke-width:1.0;" x1="140.7188" x2="140.7188" y1="652.6875" y2="672.6875"/><polygon fill="#181818" points="136.7188,662.6875,140.7188,672.6875,144.7188,662.6875,140.7188,666.6875" style="stroke:#181818;stroke-width:1.0;"/><line style="stroke:#181818;stroke-width:1.0;" x1="140.7188" x2="140.7188" y1="706.6563" y2="726.6563"/><polygon fill="#181818" points="136.7188,716.6563,140.7188,726.6563,144.7188,716.6563,140.7188,720.6563" style="stroke:#181818;stroke-width:1.0;"/><line style="stroke:#181818;stroke-width:1.0;" x1="140.7188" x2="140.7188" y1="585.7188" y2="618.7188"/><polygon fill="#181818" points="136.7188,608.7188,140.7188,618.7188,144.7188,608.7188,140.7188,612.7188" style="stroke:#181818;stroke-width:1.0;"/><line style="stroke:#181818;stroke-width:1.0;" x1="194.8174" x2="270.4375" y1="805.625" y2="805.625"/><polygon fill="#181818" points="266.4375,699.6719,270.4375,689.6719,274.4375,699.6719,270.4375,695.6719" style="stroke:#181818;stroke-width:1.0;"/><line style="stroke:#181818;stroke-width:1.0;" x1="270.4375" x2="270.4375" y1="573.7188" y2="805.625"/><line style="stroke:#181818;stroke-width:1.0;" x1="270.4375" x2="152.7188" y1="573.7188" y2="573.7188"/><polygon fill="#181818" points="162.7188,569.7188,152.7188,573.7188,162.7188,577.7188,158.7188,573.7188" style="stroke:#181818;stroke-width:1.0;"/><line style="stroke:#181818;stroke-width:1.0;" x1="140.7188" x2="140.7188" y1="760.625" y2="793.625"/><polygon fill="#181818" points="136.7188,783.625,140.7188,793.625,144.7188,783.625,140.7188,787.625" style="stroke:#181818;stroke-width:1.0;"/><line style="stroke:#181818;stroke-width:1.0;" x1="517.2539" x2="517.2539" y1="487.75" y2="507.75"/><polygon fill="#181818" points="513.2539,497.75,517.2539,507.75,521.2539,497.75,517.2539,501.75" style="stroke:#181818;stroke-width:1.0;"/><line style="stroke:#181818;stroke-width:1.0;" x1="517.2539" x2="517.2539" y1="541.7188" y2="564.75"/><polygon fill="#181818" points="513.2539,554.75,517.2539,564.75,521.2539,554.75,517.2539,558.75" style="stroke:#181818;stroke-width:1.0;"/><line style="stroke:#181818;stroke-width:1.0;" x1="517.2539" x2="517.2539" y1="598.7188" y2="618.7188"/><polygon fill="#181818" points="513.2539,608.7188,517.2539,618.7188,521.2539,608.7188,517.2539,612.7188" style="stroke:#181818;stroke-width:1.0;"/><line style="stroke:#181818;stroke-width:1.0;" x1="517.2539" x2="517.2539" y1="652.6875" y2="672.6875"/><polygon fill="#181818" points="513.2539,662.6875,517.2539,672.6875,521.2539,662.6875,517.2539,666.6875" style="stroke:#181818;stroke-width:1.0;"/><line style="stroke:#181818;stroke-width:1.0;" x1="517.2539" x2="517.2539" y1="706.6563" y2="726.6563"/><polygon fill="#181818" points="513.2539,716.6563,517.2539,726.6563,521.2539,716.6563,517.2539,720.6563" style="stroke:#181818;stroke-width:1.0;"/><line style="stroke:#181818;stroke-width:1.0;" x1="517.2539" x2="517.2539" y1="760.625" y2="780.625"/><polygon fill="#181818" points="513.2539,770.625,517.2539,780.625,521.2539,770.625,517.2539,774.625" style="stroke:#181818;stroke-width:1.0;"/><line style="stroke:#181818;stroke-width:1.0;" x1="517.2539" x2="517.2539" y1="814.5938" y2="837.625"/><polygon fill="#181818" points="513.2539,827.625,517.2539,837.625,521.2539,827.625,517.2539,831.625" style="stroke:#181818;stroke-width:1.0;"/><line style="stroke:#181818;stroke-width:1.0;" x1="517.2539" x2="517.2539" y1="871.5938" y2="891.5938"/><polygon fill="#181818" points="513.2539,881.5938,517.2539,891.5938,521.2539,881.5938,517.2539,885.5938" style="stroke:#181818;stroke-width:1.0;"/><line style="stroke:#181818;stroke-width:1.0;" x1="140.7188" x2="140.7188" y1="433.7813" y2="561.7188"/><polygon fill="#181818" points="136.7188,551.7188,140.7188,561.7188,144.7188,551.7188,140.7188,555.7188" style="stroke:#181818;stroke-width:1.0;"/><line style="stroke:#181818;stroke-width:1.0;" x1="517.2539" x2="517.2539" y1="433.7813" y2="453.7813"/><polygon fill="#181818" points="513.2539,443.7813,517.2539,453.7813,521.2539,443.7813,517.2539,447.7813" style="stroke:#181818;stroke-width:1.0;"/><line style="stroke:#181818;stroke-width:1.0;" x1="140.7188" x2="140.7188" y1="817.625" y2="945.5625"/><polygon fill="#181818" points="136.7188,935.5625,140.7188,945.5625,144.7188,935.5625,140.7188,939.5625" style="stroke:#181818;stroke-width:1.0;"/><line style="stroke:#181818;stroke-width:1.0;" x1="517.2539" x2="517.2539" y1="925.5625" y2="945.5625"/><polygon fill="#181818" points="513.2539,935.5625,517.2539,945.5625,521.2539,935.5625,517.2539,939.5625" style="stroke:#181818;stroke-width:1.0;"/><line style="stroke:#181818;stroke-width:1.0;" x1="373.5352" x2="373.5352" y1="407.7813" y2="427.7813"/><polygon fill="#181818" points="369.5352,417.7813,373.5352,427.7813,377.5352,417.7813,373.5352,421.7813" style="stroke:#181818;stroke-width:1.0;"/><line style="stroke:#181818;stroke-width:1.0;" x1="373.5352" x2="373.5352" y1="951.5625" y2="971.5625"/><polygon fill="#181818" points="369.5352,961.5625,373.5352,971.5625,377.5352,961.5625,373.5352,965.5625" style="stroke:#181818;stroke-width:1.0;"/><!--SRC=[PLBBJiD03BpdAto4NsWFg509BWZ4GvoTn4bCTjV1ko7gt-DDsfAgfwnVC-DnOa9DHR5vpzzjiNca14cW3p81OTL9waWjl-TV0WwvPXd06BaDdi8yaskv6HAX1q- -90K45KTMVdKOBF94YKCB4wSEAiV7sHLV1ZuNTh4_1ZCdEGTHFAKkOs0fOxeIqeZsXT90c8hDbt8Yg6KAC8RA4IeCmY55m_uSQhJYeD8gnGZIvFStLJFNluG-hYJC6DWShk0MHfWwTWGtbzMxMvXb0RR8uQHAwMTafQmwPbDt-xV5Ogu9uY4cyZaTnt89ikPdx6qTnbRDOXESbxzeE8sVSu1UpAlLJNBRaxZwT8kOz_8PE8vA1cbhc6hI1YkpLcbP6co35SA3-9A3pOWR4qkO_RkGygAr_G2L-442BPRVZsoyIuk57nJJEQ9GpwTRtypkCZfp1qDjRuCoi-necMxx1m00]--></g></svg>