<svg xmlns="http://www.w3.org/2000/svg" xmlns:xlink="http://www.w3.org/1999/xlink" contentStyleType="text/css" height="1232px" preserveAspectRatio="none" style="width:489px;height:1232px;background:#FFFFFF;" version="1.1" viewBox="0 0 489 1232" width="489px" zoomAndPan="magnify"><defs/><g><text fill="#000000" font-family="sans-serif" font-size="14" font-weight="bold" lengthAdjust="spacing" textLength="331.9395" x="77.4285" y="32.9951">Burr cleaning process in a cartesian robot</text><ellipse cx="209.1084" cy="57.2969" fill="#222222" rx="10" ry="10" style="stroke:#222222;stroke-width:1.0;"/><rect fill="#F1F1F1" height="33.9688" rx="12.5" ry="12.5" style="stroke:#181818;stroke-width:0.5;" width="122.9609" x="147.6279" y="87.2969"/><text fill="#000000" font-family="sans-serif" font-size="12" lengthAdjust="spacing" textLength="102.9609" x="157.6279" y="108.4355">Gear preparation</text><polygon fill="#F1F1F1" points="118.3369,141.2656,299.8799,141.2656,311.8799,153.2656,299.8799,165.2656,118.3369,165.2656,106.3369,153.2656,118.3369,141.2656" style="stroke:#181818;stroke-width:0.5;"/><text fill="#000000" font-family="sans-serif" font-size="11" lengthAdjust="spacing" textLength="181.543" x="118.3369" y="157.0737">Manual or automatic placement?</text><text fill="#000000" font-family="sans-serif" font-size="11" lengthAdjust="spacing" textLength="39.9717" x="66.3652" y="150.6714">Manual</text><text fill="#000000" font-family="sans-serif" font-size="11" lengthAdjust="spacing" textLength="56.4126" x="311.8799" y="150.6714">Automatic</text><rect fill="#F1F1F1" height="33.9688" rx="12.5" ry="12.5" style="stroke:#181818;stroke-width:0.5;" width="170.6738" x="11" y="175.2656"/><text fill="#000000" font-family="sans-serif" font-size="12" lengthAdjust="spacing" textLength="150.6738" x="21" y="196.4043">Operator places the gear</text><rect fill="#F1F1F1" height="33.9688" rx="12.5" ry="12.5" style="stroke:#181818;stroke-width:0.5;" width="159.6348" x="242.0625" y="229.2344"/><text fill="#000000" font-family="sans-serif" font-size="12" lengthAdjust="spacing" textLength="139.6348" x="252.0625" y="250.373">Conveyor position gear</text><rect fill="#F1F1F1" height="33.9688" rx="12.5" ry="12.5" style="stroke:#181818;stroke-width:0.5;" width="139.3613" x="252.1992" y="290.7031"/><text fill="#000000" font-family="sans-serif" font-size="12" lengthAdjust="spacing" textLength="119.3613" x="262.1992" y="311.8418">Check gear position</text><polygon fill="#F1F1F1" points="321.8799,175.2656,333.8799,187.2656,321.8799,199.2656,309.8799,187.2656,321.8799,175.2656" style="stroke:#181818;stroke-width:0.5;"/><polygon fill="#F1F1F1" points="275.3877,344.6719,368.3721,344.6719,380.3721,356.6719,368.3721,368.6719,275.3877,368.6719,263.3877,356.6719,275.3877,344.6719" style="stroke:#181818;stroke-width:0.5;"/><text fill="#000000" font-family="sans-serif" font-size="11" lengthAdjust="spacing" textLength="92.9844" x="275.3877" y="360.48">Gear in position?</text><text fill="#000000" font-family="sans-serif" font-size="11" lengthAdjust="spacing" textLength="13.7017" x="380.3721" y="354.0776">no</text><polygon fill="#F1F1F1" points="209.1084,380.5708,221.1084,392.5708,209.1084,404.5708,197.1084,392.5708,209.1084,380.5708" style="stroke:#181818;stroke-width:0.5;"/><text fill="#000000" font-family="sans-serif" font-size="11" lengthAdjust="spacing" textLength="19.0083" x="221.1084" y="389.9766">yes</text><rect fill="#F1F1F1" height="33.9688" rx="12.5" ry="12.5" style="stroke:#181818;stroke-width:0.5;" width="155.4746" x="131.3711" y="424.5708"/><text fill="#000000" font-family="sans-serif" font-size="12" lengthAdjust="spacing" textLength="135.4746" x="141.3711" y="445.7095">Start clamping system</text><rect fill="#F1F1F1" height="33.9688" rx="12.5" ry="12.5" style="stroke:#181818;stroke-width:0.5;" width="260.2109" x="79.0029" y="522.5396"/><text fill="#000000" font-family="sans-serif" font-size="12" lengthAdjust="spacing" textLength="240.2109" x="89.0029" y="543.6782">Acquire gear parameters through vision</text><rect fill="#F1F1F1" height="33.9688" rx="12.5" ry="12.5" style="stroke:#181818;stroke-width:0.5;" width="154.502" x="131.8574" y="576.5083"/><text fill="#000000" font-family="sans-serif" font-size="12" lengthAdjust="spacing" textLength="134.502" x="141.8574" y="597.647">Save data in database</text><rect fill="#F1F1F1" height="33.9688" rx="12.5" ry="12.5" style="stroke:#181818;stroke-width:0.5;" width="261.1484" x="78.5342" y="630.4771"/><text fill="#000000" font-family="sans-serif" font-size="12" lengthAdjust="spacing" textLength="241.1484" x="88.5342" y="651.6157">Send initial parameters to the controller</text><rect fill="#F1F1F1" height="33.9688" rx="12.5" ry="12.5" style="stroke:#181818;stroke-width:0.5;" width="206.4863" x="105.8652" y="691.9458"/><text fill="#000000" font-family="sans-serif" font-size="12" lengthAdjust="spacing" textLength="186.4863" x="115.8652" y="713.0845">Configure cleaning parameters</text><rect fill="#F1F1F1" height="33.9688" rx="12.5" ry="12.5" style="stroke:#181818;stroke-width:0.5;" width="183.0547" x="117.5811" y="745.9146"/><text fill="#000000" font-family="sans-serif" font-size="12" lengthAdjust="spacing" textLength="163.0547" x="127.5811" y="767.0532">Start burr cleaning process</text><rect fill="#F1F1F1" height="33.9688" rx="12.5" ry="12.5" style="stroke:#181818;stroke-width:0.5;" width="269.9492" x="74.1338" y="799.8833"/><text fill="#000000" font-family="sans-serif" font-size="12" lengthAdjust="spacing" textLength="249.9492" x="84.1338" y="821.022">Verify cleaning quality with vision system</text><polygon fill="#F1F1F1" points="209.1084,478.5396,221.1084,490.5396,209.1084,502.5396,197.1084,490.5396,209.1084,478.5396" style="stroke:#181818;stroke-width:0.5;"/><polygon fill="#F1F1F1" points="148.364,853.8521,269.8528,853.8521,281.8528,865.8521,269.8528,877.8521,148.364,877.8521,136.364,865.8521,148.364,853.8521" style="stroke:#181818;stroke-width:0.5;"/><text fill="#000000" font-family="sans-serif" font-size="11" lengthAdjust="spacing" textLength="121.4888" x="148.364" y="869.6602">Satisfactory cleaning?</text><text fill="#000000" font-family="sans-serif" font-size="11" lengthAdjust="spacing" textLength="13.7017" x="281.8528" y="863.2578">no</text><rect fill="#F1F1F1" height="33.9688" rx="12.5" ry="12.5" style="stroke:#181818;stroke-width:0.5;" width="185.832" x="116.1924" y="919.251"/><text fill="#000000" font-family="sans-serif" font-size="12" lengthAdjust="spacing" textLength="165.832" x="126.1924" y="940.3896">Report a manual inspection</text><rect fill="#F1F1F1" height="33.9688" rx="12.5" ry="12.5" style="stroke:#181818;stroke-width:0.5;" width="197.4922" x="110.3623" y="973.2197"/><text fill="#000000" font-family="sans-serif" font-size="12" lengthAdjust="spacing" textLength="177.4922" x="120.3623" y="994.3584">Operator performs inspection</text><polygon fill="#F1F1F1" points="133.4619,1027.1885,284.7549,1027.1885,296.7549,1039.1885,284.7549,1051.1885,133.4619,1051.1885,121.4619,1039.1885,133.4619,1027.1885" style="stroke:#181818;stroke-width:0.5;"/><text fill="#000000" font-family="sans-serif" font-size="11" lengthAdjust="spacing" textLength="151.293" x="133.4619" y="1042.9966">Operator accepts cleaning?</text><text fill="#000000" font-family="sans-serif" font-size="11" lengthAdjust="spacing" textLength="19.2178" x="102.2441" y="1036.5942">Yes</text><text fill="#000000" font-family="sans-serif" font-size="11" lengthAdjust="spacing" textLength="14.9585" x="296.7549" y="1036.5942">No</text><rect fill="#F1F1F1" height="33.9688" rx="12.5" ry="12.5" style="stroke:#181818;stroke-width:0.5;" width="136.8125" x="21.3374" y="1061.1885"/><text fill="#000000" font-family="sans-serif" font-size="12" lengthAdjust="spacing" textLength="116.8125" x="31.3374" y="1082.3271">Confirm gear ready</text><rect fill="#F1F1F1" height="33.9688" rx="12.5" ry="12.5" style="stroke:#181818;stroke-width:0.5;" width="300.6465" x="178.1499" y="1061.1885"/><text fill="#000000" font-family="sans-serif" font-size="12" lengthAdjust="spacing" textLength="280.6465" x="188.1499" y="1082.3271">Adjust parameters as required by the operator</text><rect fill="#F1F1F1" height="33.9688" rx="12.5" ry="12.5" style="stroke:#181818;stroke-width:0.5;" width="167.6152" x="244.6655" y="1115.1572"/><text fill="#000000" font-family="sans-serif" font-size="12" lengthAdjust="spacing" textLength="147.6152" x="254.6655" y="1136.2959">Repeat cleaning process</text><polygon fill="#F1F1F1" points="209.1084,1155.126,221.1084,1167.126,209.1084,1179.126,197.1084,1167.126,209.1084,1155.126" style="stroke:#181818;stroke-width:0.5;"/><ellipse cx="209.1084" cy="1210.126" fill="none" rx="11" ry="11" style="stroke:#222222;stroke-width:1.0;"/><ellipse cx="209.1084" cy="1210.126" fill="#222222" rx="6" ry="6" style="stroke:#222222;stroke-width:1.0;"/><line style="stroke:#181818;stroke-width:1.0;" x1="209.1084" x2="209.1084" y1="67.2969" y2="87.2969"/><polygon fill="#181818" points="205.1084,77.2969,209.1084,87.2969,213.1084,77.2969,209.1084,81.2969" style="stroke:#181818;stroke-width:1.0;"/><line style="stroke:#181818;stroke-width:1.0;" x1="321.8799" x2="321.8799" y1="263.2031" y2="290.7031"/><polygon fill="#181818" points="317.8799,280.7031,321.8799,290.7031,325.8799,280.7031,321.8799,284.7031" style="stroke:#181818;stroke-width:1.0;"/><line style="stroke:#181818;stroke-width:1.0;" x1="321.8799" x2="321.8799" y1="199.2656" y2="229.2344"/><polygon fill="#181818" points="317.8799,219.2344,321.8799,229.2344,325.8799,219.2344,321.8799,223.2344" style="stroke:#181818;stroke-width:1.0;"/><line style="stroke:#181818;stroke-width:1.0;" x1="380.3721" x2="413.6973" y1="356.6719" y2="356.6719"/><polygon fill="#181818" points="409.6973,283.2031,413.6973,273.2031,417.6973,283.2031,413.6973,279.2031" style="stroke:#181818;stroke-width:1.0;"/><line style="stroke:#181818;stroke-width:1.0;" x1="413.6973" x2="413.6973" y1="187.2656" y2="356.6719"/><line style="stroke:#181818;stroke-width:1.0;" x1="413.6973" x2="333.8799" y1="187.2656" y2="187.2656"/><polygon fill="#181818" points="343.8799,183.2656,333.8799,187.2656,343.8799,191.2656,339.8799,187.2656" style="stroke:#181818;stroke-width:1.0;"/><line style="stroke:#181818;stroke-width:1.0;" x1="321.8799" x2="321.8799" y1="324.6719" y2="344.6719"/><polygon fill="#181818" points="317.8799,334.6719,321.8799,344.6719,325.8799,334.6719,321.8799,338.6719" style="stroke:#181818;stroke-width:1.0;"/><line style="stroke:#181818;stroke-width:1.0;" x1="106.3369" x2="96.3369" y1="153.2656" y2="153.2656"/><line style="stroke:#181818;stroke-width:1.0;" x1="96.3369" x2="96.3369" y1="153.2656" y2="175.2656"/><polygon fill="#181818" points="92.3369,165.2656,96.3369,175.2656,100.3369,165.2656,96.3369,169.2656" style="stroke:#181818;stroke-width:1.0;"/><line style="stroke:#181818;stroke-width:1.0;" x1="311.8799" x2="321.8799" y1="153.2656" y2="153.2656"/><line style="stroke:#181818;stroke-width:1.0;" x1="321.8799" x2="321.8799" y1="153.2656" y2="175.2656"/><polygon fill="#181818" points="317.8799,165.2656,321.8799,175.2656,325.8799,165.2656,321.8799,169.2656" style="stroke:#181818;stroke-width:1.0;"/><line style="stroke:#181818;stroke-width:1.0;" x1="96.3369" x2="96.3369" y1="209.2344" y2="392.5708"/><line style="stroke:#181818;stroke-width:1.0;" x1="96.3369" x2="197.1084" y1="392.5708" y2="392.5708"/><polygon fill="#181818" points="187.1084,388.5708,197.1084,392.5708,187.1084,396.5708,191.1084,392.5708" style="stroke:#181818;stroke-width:1.0;"/><line style="stroke:#181818;stroke-width:1.0;" x1="321.8799" x2="321.8799" y1="368.6719" y2="392.5708"/><line style="stroke:#181818;stroke-width:1.0;" x1="321.8799" x2="221.1084" y1="392.5708" y2="392.5708"/><polygon fill="#181818" points="231.1084,388.5708,221.1084,392.5708,231.1084,396.5708,227.1084,392.5708" style="stroke:#181818;stroke-width:1.0;"/><line style="stroke:#181818;stroke-width:1.0;" x1="209.1084" x2="209.1084" y1="121.2656" y2="141.2656"/><polygon fill="#181818" points="205.1084,131.2656,209.1084,141.2656,213.1084,131.2656,209.1084,135.2656" style="stroke:#181818;stroke-width:1.0;"/><line style="stroke:#181818;stroke-width:1.0;" x1="209.1084" x2="209.1084" y1="404.5708" y2="424.5708"/><polygon fill="#181818" points="205.1084,414.5708,209.1084,424.5708,213.1084,414.5708,209.1084,418.5708" style="stroke:#181818;stroke-width:1.0;"/><line style="stroke:#181818;stroke-width:1.0;" x1="209.1084" x2="209.1084" y1="556.5083" y2="576.5083"/><polygon fill="#181818" points="205.1084,566.5083,209.1084,576.5083,213.1084,566.5083,209.1084,570.5083" style="stroke:#181818;stroke-width:1.0;"/><line style="stroke:#181818;stroke-width:1.0;" x1="209.1084" x2="209.1084" y1="610.4771" y2="630.4771"/><polygon fill="#181818" points="205.1084,620.4771,209.1084,630.4771,213.1084,620.4771,209.1084,624.4771" style="stroke:#181818;stroke-width:1.0;"/><line style="stroke:#181818;stroke-width:1.0;" x1="209.1084" x2="209.1084" y1="664.4458" y2="691.9458"/><polygon fill="#181818" points="205.1084,681.9458,209.1084,691.9458,213.1084,681.9458,209.1084,685.9458" style="stroke:#181818;stroke-width:1.0;"/><line style="stroke:#181818;stroke-width:1.0;" x1="209.1084" x2="209.1084" y1="725.9146" y2="745.9146"/><polygon fill="#181818" points="205.1084,735.9146,209.1084,745.9146,213.1084,735.9146,209.1084,739.9146" style="stroke:#181818;stroke-width:1.0;"/><line style="stroke:#181818;stroke-width:1.0;" x1="209.1084" x2="209.1084" y1="779.8833" y2="799.8833"/><polygon fill="#181818" points="205.1084,789.8833,209.1084,799.8833,213.1084,789.8833,209.1084,793.8833" style="stroke:#181818;stroke-width:1.0;"/><line style="stroke:#181818;stroke-width:1.0;" x1="209.1084" x2="209.1084" y1="502.5396" y2="522.5396"/><polygon fill="#181818" points="205.1084,512.5396,209.1084,522.5396,213.1084,512.5396,209.1084,516.5396" style="stroke:#181818;stroke-width:1.0;"/><line style="stroke:#181818;stroke-width:1.0;" x1="281.8528" x2="356.083" y1="865.8521" y2="865.8521"/><polygon fill="#181818" points="352.083,684.4458,356.083,674.4458,360.083,684.4458,356.083,680.4458" style="stroke:#181818;stroke-width:1.0;"/><line style="stroke:#181818;stroke-width:1.0;" x1="356.083" x2="356.083" y1="490.5396" y2="865.8521"/><line style="stroke:#181818;stroke-width:1.0;" x1="356.083" x2="221.1084" y1="490.5396" y2="490.5396"/><polygon fill="#181818" points="231.1084,486.5396,221.1084,490.5396,231.1084,494.5396,227.1084,490.5396" style="stroke:#181818;stroke-width:1.0;"/><line style="stroke:#181818;stroke-width:1.0;" x1="209.1084" x2="209.1084" y1="833.8521" y2="853.8521"/><polygon fill="#181818" points="205.1084,843.8521,209.1084,853.8521,213.1084,843.8521,209.1084,847.8521" style="stroke:#181818;stroke-width:1.0;"/><line style="stroke:#181818;stroke-width:1.0;" x1="209.1084" x2="209.1084" y1="458.5396" y2="478.5396"/><polygon fill="#181818" points="205.1084,468.5396,209.1084,478.5396,213.1084,468.5396,209.1084,472.5396" style="stroke:#181818;stroke-width:1.0;"/><line style="stroke:#181818;stroke-width:1.0;" x1="209.1084" x2="209.1084" y1="877.8521" y2="919.251"/><polygon fill="#181818" points="205.1084,909.251,209.1084,919.251,213.1084,909.251,209.1084,913.251" style="stroke:#181818;stroke-width:1.0;"/><text fill="#000000" font-family="sans-serif" font-size="11" lengthAdjust="spacing" textLength="19.0083" x="213.1084" y="899.1567">yes</text><line style="stroke:#181818;stroke-width:1.0;" x1="209.1084" x2="209.1084" y1="953.2197" y2="973.2197"/><polygon fill="#181818" points="205.1084,963.2197,209.1084,973.2197,213.1084,963.2197,209.1084,967.2197" style="stroke:#181818;stroke-width:1.0;"/><line style="stroke:#181818;stroke-width:1.0;" x1="328.4731" x2="328.4731" y1="1095.1572" y2="1115.1572"/><polygon fill="#181818" points="324.4731,1105.1572,328.4731,1115.1572,332.4731,1105.1572,328.4731,1109.1572" style="stroke:#181818;stroke-width:1.0;"/><line style="stroke:#181818;stroke-width:1.0;" x1="121.4619" x2="89.7437" y1="1039.1885" y2="1039.1885"/><line style="stroke:#181818;stroke-width:1.0;" x1="89.7437" x2="89.7437" y1="1039.1885" y2="1061.1885"/><polygon fill="#181818" points="85.7437,1051.1885,89.7437,1061.1885,93.7437,1051.1885,89.7437,1055.1885" style="stroke:#181818;stroke-width:1.0;"/><line style="stroke:#181818;stroke-width:1.0;" x1="296.7549" x2="328.4731" y1="1039.1885" y2="1039.1885"/><line style="stroke:#181818;stroke-width:1.0;" x1="328.4731" x2="328.4731" y1="1039.1885" y2="1061.1885"/><polygon fill="#181818" points="324.4731,1051.1885,328.4731,1061.1885,332.4731,1051.1885,328.4731,1055.1885" style="stroke:#181818;stroke-width:1.0;"/><line style="stroke:#181818;stroke-width:1.0;" x1="89.7437" x2="89.7437" y1="1095.1572" y2="1167.126"/><line style="stroke:#181818;stroke-width:1.0;" x1="89.7437" x2="197.1084" y1="1167.126" y2="1167.126"/><polygon fill="#181818" points="187.1084,1163.126,197.1084,1167.126,187.1084,1171.126,191.1084,1167.126" style="stroke:#181818;stroke-width:1.0;"/><line style="stroke:#181818;stroke-width:1.0;" x1="328.4731" x2="328.4731" y1="1149.126" y2="1167.126"/><line style="stroke:#181818;stroke-width:1.0;" x1="328.4731" x2="221.1084" y1="1167.126" y2="1167.126"/><polygon fill="#181818" points="231.1084,1163.126,221.1084,1167.126,231.1084,1171.126,227.1084,1167.126" style="stroke:#181818;stroke-width:1.0;"/><line style="stroke:#181818;stroke-width:1.0;" x1="209.1084" x2="209.1084" y1="1007.1885" y2="1027.1885"/><polygon fill="#181818" points="205.1084,1017.1885,209.1084,1027.1885,213.1084,1017.1885,209.1084,1021.1885" style="stroke:#181818;stroke-width:1.0;"/><line style="stroke:#181818;stroke-width:1.0;" x1="209.1084" x2="209.1084" y1="1179.126" y2="1199.126"/><polygon fill="#181818" points="205.1084,1189.126,209.1084,1199.126,213.1084,1189.126,209.1084,1193.126" style="stroke:#181818;stroke-width:1.0;"/><!--SRC=[RL91Zjim3Bph5JmcX_r036oHxg6dTe4Di42FZ4mdQcrHAz9P-FUbB3j9c-QG82A7CvoX1kq9leuvW-y9OuWdI9azYK28WE0nAqd029cFhCw9sejpks-4sLefOKOD71ldGWURxnX7x84puAWyMCb3wj7JG56_R47F5DUkhGFxx5uJsGX3p7rIMk1aqnj7lH1izkkWhJCwGgsm5uuNcWgC9HG52yXPwKp-z_ptMcnW0SFdETZAcrc_hRWscBOWi8cyTK_F4ucnnpPqjkcXR6psu92AFJA9qc0yYvZTtd-C8TF2PtOCf9JB7fd7qnakGMP_TWUy4BIeM7ZBxn65ohinsPF9CEVk1_3iXUUecVkURBcoTHTEez7TyheYcbNiyN-1MlMTSkYcM-N3KWWwmMVGLUTrlx_jEbW0qg6td6xuHy_cPDueiOb06EenX2Y9V3sIVnAdt74UvA5b_YhtT6r5xocft7FNM_f9KWzflOekvA66aGdRgGwif_I3xrhtxQzHzDvm58FCORPmd6RpUU5lRhYtQioZlIPxkHbHJdy0]--></g></svg>