<svg xmlns="http://www.w3.org/2000/svg" xmlns:xlink="http://www.w3.org/1999/xlink" contentStyleType="text/css" height="1171px" preserveAspectRatio="none" style="width:655px;height:1171px;background:#FFFFFF;" version="1.1" viewBox="0 0 655 1171" width="655px" zoomAndPan="magnify"><defs/><g><text fill="#000000" font-family="sans-serif" font-size="14" font-weight="bold" lengthAdjust="spacing" textLength="181.2275" x="235.8745" y="32.9951">Git Workflow Overview</text><rect fill="#FFFFE0" height="228.2031" style="stroke:#000000;stroke-width:1.5;" width="321.3008" x="167.3379" y="48.2969"/><text fill="#000000" font-family="sans-serif" font-size="14" lengthAdjust="spacing" textLength="301.3008" x="177.3379" y="63.292">GitHubOrganization as GitHubOrganization</text><rect fill="#F1F1F1" height="33.9688" rx="12.5" ry="12.5" style="stroke:#181818;stroke-width:0.5;" width="146.7148" x="254.6309" y="84.5938"/><text fill="#000000" font-family="sans-serif" font-size="12" lengthAdjust="spacing" textLength="126.7148" x="264.6309" y="105.7324">Organization created</text><rect fill="#F1F1F1" height="33.9688" rx="12.5" ry="12.5" style="stroke:#181818;stroke-width:0.5;" width="117.0137" x="269.4814" y="153.5625"/><text fill="#000000" font-family="sans-serif" font-size="12" lengthAdjust="spacing" textLength="97.0137" x="279.4814" y="174.7012">Members added</text><rect fill="#F1F1F1" height="33.9688" rx="12.5" ry="12.5" style="stroke:#181818;stroke-width:0.5;" width="180.6406" x="237.668" y="222.5313"/><text fill="#000000" font-family="sans-serif" font-size="12" lengthAdjust="spacing" textLength="160.6406" x="247.668" y="243.6699">All members made owners</text><rect fill="#FFFFE0" height="90.2656" style="stroke:#000000;stroke-width:1.5;" width="255.1152" x="200.4307" y="286.5"/><text fill="#000000" font-family="sans-serif" font-size="14" lengthAdjust="spacing" textLength="136.8145" x="259.5811" y="301.4951">GitRepo as GitRepo</text><rect fill="#F1F1F1" height="33.9688" rx="12.5" ry="12.5" style="stroke:#181818;stroke-width:0.5;" width="235.1152" x="210.4307" y="322.7969"/><text fill="#000000" font-family="sans-serif" font-size="12" lengthAdjust="spacing" textLength="215.1152" x="220.4307" y="343.9355">Git repo created in the organization</text><rect fill="#FFFFE0" height="435.1094" style="stroke:#000000;stroke-width:1.5;" width="345.8066" x="155.085" y="386.7656"/><text fill="#000000" font-family="sans-serif" font-size="14" lengthAdjust="spacing" textLength="154.5332" x="250.7217" y="401.7607">Members as Members</text><rect fill="#F1F1F1" height="33.9688" rx="12.5" ry="12.5" style="stroke:#181818;stroke-width:0.5;" width="289.8066" x="183.085" y="423.0625"/><text fill="#000000" font-family="sans-serif" font-size="12" lengthAdjust="spacing" textLength="269.8066" x="193.085" y="444.2012">All members fork the organization repository</text><rect fill="#F1F1F1" height="33.9688" rx="12.5" ry="12.5" style="stroke:#181818;stroke-width:0.5;" width="317.0234" x="169.4766" y="492.0313"/><text fill="#000000" font-family="sans-serif" font-size="12" lengthAdjust="spacing" textLength="297.0234" x="179.4766" y="513.1699">All members clone this fork to Visual Studio Code</text><rect fill="#F1F1F1" height="33.9688" rx="12.5" ry="12.5" style="stroke:#181818;stroke-width:0.5;" width="200.1113" x="227.9326" y="561"/><text fill="#000000" font-family="sans-serif" font-size="12" lengthAdjust="spacing" textLength="180.1113" x="237.9326" y="582.1387">Changes can be made in here</text><rect fill="#F1F1F1" height="33.9688" rx="12.5" ry="12.5" style="stroke:#181818;stroke-width:0.5;" width="163.5781" x="246.1992" y="629.9688"/><text fill="#000000" font-family="sans-serif" font-size="12" lengthAdjust="spacing" textLength="143.5781" x="256.1992" y="651.1074">Commit changes locally</text><rect fill="#F1F1F1" height="33.9688" rx="12.5" ry="12.5" style="stroke:#181818;stroke-width:0.5;" width="189.6699" x="233.1533" y="698.9375"/><text fill="#000000" font-family="sans-serif" font-size="12" lengthAdjust="spacing" textLength="169.6699" x="243.1533" y="720.0762">Push to their own repository</text><rect fill="#F1F1F1" height="33.9688" rx="12.5" ry="12.5" style="stroke:#181818;stroke-width:0.5;" width="325.8066" x="165.085" y="767.9063"/><text fill="#000000" font-family="sans-serif" font-size="12" lengthAdjust="spacing" textLength="305.8066" x="175.085" y="789.0449">Send a pull request to the organizations repository</text><rect fill="#FFFFE0" height="90.2656" style="stroke:#000000;stroke-width:1.5;" width="312.0625" x="171.957" y="831.875"/><text fill="#000000" font-family="sans-serif" font-size="14" lengthAdjust="spacing" textLength="112.6699" x="271.6533" y="846.8701">Merge as Merge</text><rect fill="#F1F1F1" height="33.9688" rx="12.5" ry="12.5" style="stroke:#181818;stroke-width:0.5;" width="292.0625" x="181.957" y="868.1719"/><text fill="#000000" font-family="sans-serif" font-size="12" lengthAdjust="spacing" textLength="272.0625" x="191.957" y="889.3105">One of the members merges the pull request</text><rect fill="#FFFFE0" height="228.2031" style="stroke:#000000;stroke-width:1.5;" width="633.9766" x="11" y="932.1406"/><text fill="#000000" font-family="sans-serif" font-size="14" lengthAdjust="spacing" textLength="126.1777" x="264.8994" y="947.1357">Update as Update</text><rect fill="#F1F1F1" height="33.9688" rx="12.5" ry="12.5" style="stroke:#181818;stroke-width:0.5;" width="613.9766" x="21" y="968.4375"/><text fill="#000000" font-family="sans-serif" font-size="12" lengthAdjust="spacing" textLength="593.9766" x="31" y="989.5762">When starting to code, a members repository is first updated based on the organization repository</text><rect fill="#F1F1F1" height="33.9688" rx="12.5" ry="12.5" style="stroke:#181818;stroke-width:0.5;" width="197.8848" x="229.0459" y="1037.4063"/><text fill="#000000" font-family="sans-serif" font-size="12" lengthAdjust="spacing" textLength="177.8848" x="239.0459" y="1058.5449">The member does a local pull</text><rect fill="#F1F1F1" height="33.9688" rx="12.5" ry="12.5" style="stroke:#181818;stroke-width:0.5;" width="195.2363" x="230.3701" y="1106.375"/><text fill="#000000" font-family="sans-serif" font-size="12" lengthAdjust="spacing" textLength="175.2363" x="240.3701" y="1127.5137">Starts making changes again</text><line style="stroke:#181818;stroke-width:1.0;" x1="327.9883" x2="327.9883" y1="118.5625" y2="153.5625"/><polygon fill="#181818" points="323.9883,143.5625,327.9883,153.5625,331.9883,143.5625,327.9883,147.5625" style="stroke:#181818;stroke-width:1.0;"/><line style="stroke:#181818;stroke-width:1.0;" x1="327.9883" x2="327.9883" y1="187.5313" y2="222.5313"/><polygon fill="#181818" points="323.9883,212.5313,327.9883,222.5313,331.9883,212.5313,327.9883,216.5313" style="stroke:#181818;stroke-width:1.0;"/><line style="stroke:#181818;stroke-width:1.0;" x1="327.9883" x2="327.9883" y1="256.5" y2="322.7969"/><polygon fill="#181818" points="323.9883,312.7969,327.9883,322.7969,331.9883,312.7969,327.9883,316.7969" style="stroke:#181818;stroke-width:1.0;"/><line style="stroke:#181818;stroke-width:1.0;" x1="327.9883" x2="327.9883" y1="457.0313" y2="492.0313"/><polygon fill="#181818" points="323.9883,482.0313,327.9883,492.0313,331.9883,482.0313,327.9883,486.0313" style="stroke:#181818;stroke-width:1.0;"/><line style="stroke:#181818;stroke-width:1.0;" x1="327.9883" x2="327.9883" y1="526" y2="561"/><polygon fill="#181818" points="323.9883,551,327.9883,561,331.9883,551,327.9883,555" style="stroke:#181818;stroke-width:1.0;"/><line style="stroke:#181818;stroke-width:1.0;" x1="327.9883" x2="327.9883" y1="594.9688" y2="629.9688"/><polygon fill="#181818" points="323.9883,619.9688,327.9883,629.9688,331.9883,619.9688,327.9883,623.9688" style="stroke:#181818;stroke-width:1.0;"/><line style="stroke:#181818;stroke-width:1.0;" x1="327.9883" x2="327.9883" y1="663.9375" y2="698.9375"/><polygon fill="#181818" points="323.9883,688.9375,327.9883,698.9375,331.9883,688.9375,327.9883,692.9375" style="stroke:#181818;stroke-width:1.0;"/><line style="stroke:#181818;stroke-width:1.0;" x1="327.9883" x2="327.9883" y1="732.9063" y2="767.9063"/><polygon fill="#181818" points="323.9883,757.9063,327.9883,767.9063,331.9883,757.9063,327.9883,761.9063" style="stroke:#181818;stroke-width:1.0;"/><line style="stroke:#181818;stroke-width:1.0;" x1="327.9883" x2="327.9883" y1="356.7656" y2="423.0625"/><polygon fill="#181818" points="323.9883,413.0625,327.9883,423.0625,331.9883,413.0625,327.9883,417.0625" style="stroke:#181818;stroke-width:1.0;"/><line style="stroke:#181818;stroke-width:1.0;" x1="327.9883" x2="327.9883" y1="801.875" y2="868.1719"/><polygon fill="#181818" points="323.9883,858.1719,327.9883,868.1719,331.9883,858.1719,327.9883,862.1719" style="stroke:#181818;stroke-width:1.0;"/><line style="stroke:#181818;stroke-width:1.0;" x1="327.9883" x2="327.9883" y1="1002.4063" y2="1037.4063"/><polygon fill="#181818" points="323.9883,1027.4063,327.9883,1037.4063,331.9883,1027.4063,327.9883,1031.4063" style="stroke:#181818;stroke-width:1.0;"/><line style="stroke:#181818;stroke-width:1.0;" x1="327.9883" x2="327.9883" y1="1071.375" y2="1106.375"/><polygon fill="#181818" points="323.9883,1096.375,327.9883,1106.375,331.9883,1096.375,327.9883,1100.375" style="stroke:#181818;stroke-width:1.0;"/><line style="stroke:#181818;stroke-width:1.0;" x1="327.9883" x2="327.9883" y1="902.1406" y2="968.4375"/><polygon fill="#181818" points="323.9883,958.4375,327.9883,968.4375,331.9883,958.4375,327.9883,962.4375" style="stroke:#181818;stroke-width:1.0;"/><!--SRC=[ZLBDRjim3BxhARXR2-m9rbCN5DsXMul-OaV6OcmYifXHSfEjwBkFScp7INUO3eP1yVlXHsNEWU2QCxo8hbT1jd3xIlhAj7NkawSLHuBxgyNZvO_hcwkptJaeLHbZRQWTO8ATSsdDSOEAxUpkpO6ThrYjQvKk-eK4KRZXkia_AHIPyRXtvzn1mQnywvQtMcFaFvXPulb0zcLUX4e9C_cB_TLtQfUa2T3xgNOP0hH3lKLF8Dje_nT5y4ZldZOoYPGer0gZ0724t1Xu9dv2COXF57FXbQNw0TyB9CwYl__XjGfYcUU6HxJ0CwSE0ppaphF0GZmDk4LZSPDXCCAIzcEQuOPqwf2sjP6geJ58XI6CidTTQWg_6MGj-Nnqza3H0yAcCuTAlpfAUK0SZPIEa2VnQ4s79Tfiikhnqt9AG-fBSvaJcgUDjtrCF2yDHKWPDNEiYwFAKlbiJaVMWnyeIRAQyQxdyB34P5-9_x6PnyaeU36Nk8-mTpf6L5oKDxOkLiQaiKOkB-Kl]--></g></svg>