<svg xmlns="http://www.w3.org/2000/svg" xmlns:xlink="http://www.w3.org/1999/xlink" contentStyleType="text/css" height="583px" preserveAspectRatio="none" style="width:904px;height:583px;background:#FFFFFF;" version="1.1" viewBox="0 0 904 583" width="904px" zoomAndPan="magnify"><defs/><g><!--cluster Operator--><g id="cluster_Operator"><path d="M8.5,6 L80.4844,6 A3.75,3.75 0 0 1 82.9844,8.5 L89.9844,28.2969 L354.5,28.2969 A2.5,2.5 0 0 1 357,30.7969 L357,283.1 A2.5,2.5 0 0 1 354.5,285.6 L8.5,285.6 A2.5,2.5 0 0 1 6,283.1 L6,8.5 A2.5,2.5 0 0 1 8.5,6 " fill="none" style="stroke:#000000;stroke-width:1.5;"/><line style="stroke:#000000;stroke-width:1.5;" x1="6" x2="89.9844" y1="28.2969" y2="28.2969"/><text fill="#000000" font-family="sans-serif" font-size="14" font-weight="bold" lengthAdjust="spacing" textLength="70.9844" x="10" y="20.9951">Operator</text></g><!--cluster Base Frame--><g id="cluster_Base Frame"><path d="M546.5,169.3 L640.3184,169.3 A3.75,3.75 0 0 1 642.8184,171.8 L649.8184,191.5969 L894.5,191.5969 A2.5,2.5 0 0 1 897,194.0969 L897,448.39 A2.5,2.5 0 0 1 894.5,450.89 L546.5,450.89 A2.5,2.5 0 0 1 544,448.39 L544,171.8 A2.5,2.5 0 0 1 546.5,169.3 " fill="none" style="stroke:#000000;stroke-width:1.5;"/><line style="stroke:#000000;stroke-width:1.5;" x1="544" x2="649.8184" y1="191.5969" y2="191.5969"/><text fill="#000000" font-family="sans-serif" font-size="14" font-weight="bold" lengthAdjust="spacing" textLength="92.8184" x="548" y="184.2951">Base Frame</text></g><!--cluster Industrial PC--><g id="cluster_Industrial PC"><path d="M97.5,334.6 L200.0479,334.6 A3.75,3.75 0 0 1 202.5479,337.1 L209.5479,356.8969 L517.5,356.8969 A2.5,2.5 0 0 1 520,359.3969 L520,573.69 A2.5,2.5 0 0 1 517.5,576.19 L97.5,576.19 A2.5,2.5 0 0 1 95,573.69 L95,337.1 A2.5,2.5 0 0 1 97.5,334.6 " fill="none" style="stroke:#000000;stroke-width:1.5;"/><line style="stroke:#000000;stroke-width:1.5;" x1="95" x2="209.5479" y1="356.8969" y2="356.8969"/><text fill="#000000" font-family="sans-serif" font-size="14" font-weight="bold" lengthAdjust="spacing" textLength="101.5479" x="99" y="349.5951">Industrial PC</text></g><!--entity opPut--><g id="elem_opPut"><rect fill="#F1F1F1" height="46.2969" rx="2.5" ry="2.5" style="stroke:#181818;stroke-width:0.5;" width="140.8643" x="200.57" y="60"/><rect fill="#F1F1F1" height="10" style="stroke:#181818;stroke-width:0.5;" width="15" x="321.4343" y="65"/><rect fill="#F1F1F1" height="2" style="stroke:#181818;stroke-width:0.5;" width="4" x="319.4343" y="67"/><rect fill="#F1F1F1" height="2" style="stroke:#181818;stroke-width:0.5;" width="4" x="319.4343" y="71"/><text fill="#000000" font-family="sans-serif" font-size="14" lengthAdjust="spacing" textLength="100.8643" x="215.57" y="92.9951">Input machine</text></g><!--entity opQuality--><g id="elem_opQuality"><rect fill="#F1F1F1" height="46.2969" rx="2.5" ry="2.5" style="stroke:#181818;stroke-width:0.5;" width="143.3115" x="22.34" y="60"/><rect fill="#F1F1F1" height="10" style="stroke:#181818;stroke-width:0.5;" width="15" x="145.6515" y="65"/><rect fill="#F1F1F1" height="2" style="stroke:#181818;stroke-width:0.5;" width="4" x="143.6515" y="67"/><rect fill="#F1F1F1" height="2" style="stroke:#181818;stroke-width:0.5;" width="4" x="143.6515" y="71"/><text fill="#000000" font-family="sans-serif" font-size="14" lengthAdjust="spacing" textLength="103.3115" x="37.34" y="92.9951">Quality control</text></g><!--entity opGet--><g id="elem_opGet"><rect fill="#F1F1F1" height="46.2969" rx="2.5" ry="2.5" style="stroke:#181818;stroke-width:0.5;" width="171.1885" x="22.41" y="223.3"/><rect fill="#F1F1F1" height="10" style="stroke:#181818;stroke-width:0.5;" width="15" x="173.5985" y="228.3"/><rect fill="#F1F1F1" height="2" style="stroke:#181818;stroke-width:0.5;" width="4" x="171.5985" y="230.3"/><rect fill="#F1F1F1" height="2" style="stroke:#181818;stroke-width:0.5;" width="4" x="171.5985" y="234.3"/><text fill="#000000" font-family="sans-serif" font-size="14" lengthAdjust="spacing" textLength="131.1885" x="37.41" y="256.2951">Output of machine</text></g><!--entity robot--><g id="elem_robot"><rect fill="#F1F1F1" height="46.2969" rx="2.5" ry="2.5" style="stroke:#181818;stroke-width:0.5;" width="148.5615" x="732.72" y="223.3"/><rect fill="#F1F1F1" height="10" style="stroke:#181818;stroke-width:0.5;" width="15" x="861.2815" y="228.3"/><rect fill="#F1F1F1" height="2" style="stroke:#181818;stroke-width:0.5;" width="4" x="859.2815" y="230.3"/><rect fill="#F1F1F1" height="2" style="stroke:#181818;stroke-width:0.5;" width="4" x="859.2815" y="234.3"/><text fill="#000000" font-family="sans-serif" font-size="14" lengthAdjust="spacing" textLength="108.5615" x="747.72" y="256.2951">Cartesian robot</text></g><!--entity tool--><g id="elem_tool"><rect fill="#F1F1F1" height="46.2969" rx="2.5" ry="2.5" style="stroke:#181818;stroke-width:0.5;" width="69.5723" x="565.21" y="388.6"/><rect fill="#F1F1F1" height="10" style="stroke:#181818;stroke-width:0.5;" width="15" x="614.7823" y="393.6"/><rect fill="#F1F1F1" height="2" style="stroke:#181818;stroke-width:0.5;" width="4" x="612.7823" y="395.6"/><rect fill="#F1F1F1" height="2" style="stroke:#181818;stroke-width:0.5;" width="4" x="612.7823" y="399.6"/><text fill="#000000" font-family="sans-serif" font-size="14" lengthAdjust="spacing" textLength="29.5723" x="580.21" y="421.5951">Tool</text></g><!--entity vision--><g id="elem_vision"><rect fill="#F1F1F1" height="46.2969" rx="2.5" ry="2.5" style="stroke:#181818;stroke-width:0.5;" width="137.1523" x="560.42" y="223.3"/><rect fill="#F1F1F1" height="10" style="stroke:#181818;stroke-width:0.5;" width="15" x="677.5723" y="228.3"/><rect fill="#F1F1F1" height="2" style="stroke:#181818;stroke-width:0.5;" width="4" x="675.5723" y="230.3"/><rect fill="#F1F1F1" height="2" style="stroke:#181818;stroke-width:0.5;" width="4" x="675.5723" y="234.3"/><text fill="#000000" font-family="sans-serif" font-size="14" lengthAdjust="spacing" textLength="97.1523" x="575.42" y="256.2951">Vision system</text></g><!--entity pcDimensions--><g id="elem_pcDimensions"><rect fill="#F1F1F1" height="46.2969" rx="2.5" ry="2.5" style="stroke:#181818;stroke-width:0.5;" width="176.2266" x="327.89" y="388.6"/><rect fill="#F1F1F1" height="10" style="stroke:#181818;stroke-width:0.5;" width="15" x="484.1166" y="393.6"/><rect fill="#F1F1F1" height="2" style="stroke:#181818;stroke-width:0.5;" width="4" x="482.1166" y="395.6"/><rect fill="#F1F1F1" height="2" style="stroke:#181818;stroke-width:0.5;" width="4" x="482.1166" y="399.6"/><text fill="#000000" font-family="sans-serif" font-size="14" lengthAdjust="spacing" textLength="136.2266" x="342.89" y="421.5951">Gear measurement</text></g><!--entity pcPath--><g id="elem_pcPath"><rect fill="#F1F1F1" height="46.2969" rx="2.5" ry="2.5" style="stroke:#181818;stroke-width:0.5;" width="174.8594" x="328.57" y="513.89"/><rect fill="#F1F1F1" height="10" style="stroke:#181818;stroke-width:0.5;" width="15" x="483.4294" y="518.89"/><rect fill="#F1F1F1" height="2" style="stroke:#181818;stroke-width:0.5;" width="4" x="481.4294" y="520.89"/><rect fill="#F1F1F1" height="2" style="stroke:#181818;stroke-width:0.5;" width="4" x="481.4294" y="524.89"/><text fill="#000000" font-family="sans-serif" font-size="14" lengthAdjust="spacing" textLength="134.8594" x="343.57" y="546.8851">Travel path creator</text></g><!--entity pcForce--><g id="elem_pcForce"><rect fill="#F1F1F1" height="46.2969" rx="2.5" ry="2.5" style="stroke:#181818;stroke-width:0.5;" width="181.1143" x="111.44" y="388.6"/><rect fill="#F1F1F1" height="10" style="stroke:#181818;stroke-width:0.5;" width="15" x="272.5543" y="393.6"/><rect fill="#F1F1F1" height="2" style="stroke:#181818;stroke-width:0.5;" width="4" x="270.5543" y="395.6"/><rect fill="#F1F1F1" height="2" style="stroke:#181818;stroke-width:0.5;" width="4" x="270.5543" y="399.6"/><text fill="#000000" font-family="sans-serif" font-size="14" lengthAdjust="spacing" textLength="141.1143" x="126.44" y="421.5951">Force measurement</text></g><!--link opPut to robot--><g id="link_opPut_robot"><path d="M341.65,84.38 C432.53,87.3 593.15,101.47 715,161.3 C744.92,175.99 768.2122,198.9243 785.1422,218.4743 " fill="none" id="opPut-to-robot" style="stroke:#181818;stroke-width:1.0;"/><polygon fill="#181818" points="789.07,223.01,786.2021,213.588,785.7968,219.2303,780.1545,218.825,789.07,223.01" style="stroke:#181818;stroke-width:1.0;"/><text fill="#000000" font-family="sans-serif" font-size="13" lengthAdjust="spacing" textLength="31.3828" x="694" y="149.3669">Gear</text></g><!--link vision to pcDimensions--><g id="link_vision_pcDimensions"><path d="M560.2,252.89 C494.5,259.69 402.28,273.95 380,301.6 C359.47,327.08 376.4723,359.8612 393.8923,383.6212 " fill="none" id="vision-to-pcDimensions" style="stroke:#181818;stroke-width:1.0;"/><polygon fill="#181818" points="397.44,388.46,395.3444,378.8367,394.4836,384.4277,388.8926,383.5669,397.44,388.46" style="stroke:#181818;stroke-width:1.0;"/><text fill="#000000" font-family="sans-serif" font-size="13" lengthAdjust="spacing" textLength="40.7139" x="381" y="314.6669">Image</text></g><!--link pcDimensions to pcPath--><g id="link_pcDimensions_pcPath"><path d="M416,435.36 C416,457.61 416,485.37 416,507.57 " fill="none" id="pcDimensions-to-pcPath" style="stroke:#181818;stroke-width:1.0;"/><polygon fill="#181818" points="416,513.57,420,504.57,416,508.57,412,504.57,416,513.57" style="stroke:#181818;stroke-width:1.0;"/><text fill="#000000" font-family="sans-serif" font-size="13" lengthAdjust="spacing" textLength="40.7139" x="417" y="479.9569">Image</text></g><!--link pcPath to robot--><g id="link_pcPath_robot"><path d="M503.53,526.48 C591.5,515.1 718.95,493.21 754,458.89 C806.33,407.66 810.026,319.0668 808.616,275.9368 " fill="none" id="pcPath-to-robot" style="stroke:#181818;stroke-width:1.0;"/><polygon fill="#181818" points="808.42,269.94,804.7162,279.0659,808.5834,274.9373,812.7119,278.8045,808.42,269.94" style="stroke:#181818;stroke-width:1.0;"/><text fill="#000000" font-family="sans-serif" font-size="13" lengthAdjust="spacing" textLength="78.2666" x="807" y="416.3069">Coordinates</text></g><!--link robot to tool--><g id="link_robot_tool"><path d="M756.84,270.08 C739.69,278.83 720.84,289.64 705,301.6 C670.79,327.41 641.4026,359.9836 621.7926,383.6036 " fill="none" id="robot-to-tool" style="stroke:#181818;stroke-width:1.0;"/><polygon fill="#181818" points="617.96,388.22,626.7865,383.8505,621.1539,384.373,620.6314,378.7404,617.96,388.22" style="stroke:#181818;stroke-width:1.0;"/><text fill="#000000" font-family="sans-serif" font-size="13" lengthAdjust="spacing" textLength="74.3438" x="706" y="314.6669">Start signal</text></g><!--link tool to tool--><g id="link_tool_tool"><path d="M635.19,400.23 C653.38,398.46 669.79,402.3 669.79,411.74 C669.79,421.19 659.3518,425.6111 641.1618,423.8411 " fill="none" id="tool-to-tool" style="stroke:#181818;stroke-width:1.0;"/><polygon fill="#181818" points="635.19,423.26,643.7603,428.1128,640.1665,423.7442,644.5351,420.1504,635.19,423.26" style="stroke:#181818;stroke-width:1.0;"/><text fill="#000000" font-family="sans-serif" font-size="13" lengthAdjust="spacing" textLength="72.1411" x="675.79" y="416.3069">Stop signal</text></g><!--link tool to pcForce--><g id="link_tool_pcForce"><path d="M588.78,388.3 C577.29,367.32 557.26,337.91 530,324.87 C485.9,303.77 356.08,310.25 310,326.6 C275.12,338.97 247.0664,363.2721 227.0564,383.9121 " fill="none" id="tool-to-pcForce" style="stroke:#181818;stroke-width:1.0;"/><polygon fill="#181818" points="222.88,388.22,232.0165,384.5424,226.3603,384.6301,226.2727,378.9739,222.88,388.22" style="stroke:#181818;stroke-width:1.0;"/><text fill="#000000" font-family="sans-serif" font-size="13" lengthAdjust="spacing" textLength="98.1221" x="431" y="314.6669">Measure signal</text></g><!--link pcForce to opQuality--><g id="link_pcForce_opQuality"><path d="M207.97,388.3 C218.73,343.67 237.91,241.17 211,161.3 C202.61,136.4 185.7832,121.5864 162.9932,109.5264 " fill="none" id="pcForce-to-opQuality" style="stroke:#181818;stroke-width:1.0;"/><polygon fill="#181818" points="157.69,106.72,163.7739,114.465,162.1094,109.0586,167.5158,107.3941,157.69,106.72" style="stroke:#181818;stroke-width:1.0;"/><text fill="#000000" font-family="sans-serif" font-size="13" lengthAdjust="spacing" textLength="69.3354" x="225" y="251.0169">Force data</text></g><!--link opQuality to opGet--><g id="link_opQuality_opGet"><path d="M95.95,106.58 C98.61,137.31 102.8611,186.2125 105.5311,216.9725 " fill="none" id="opQuality-to-opGet" style="stroke:#181818;stroke-width:1.0;"/><polygon fill="#181818" points="106.05,222.95,109.2567,213.6378,105.6176,217.9687,101.2867,214.3296,106.05,222.95" style="stroke:#181818;stroke-width:1.0;"/><text fill="#000000" font-family="sans-serif" font-size="13" lengthAdjust="spacing" textLength="83.5288" x="100" y="149.3669">Ready signal</text></g><!--SRC=[RPBFJiCm3CRlUGehzxq01muCRTe1RVmH5yJ1j6QBrYPHuawQ4EzE77U50Zsbt_UBFzjAnEQ8UmAxZPIGGxBmOQ1yBniV1uOUcuFpz0gO8SJTm6hU3zWvFaCJFAVGZVQeAh8TM0g4zryrriJcqvXu2Rx1JB1AsDCKlSJ4b1rwIE4jSBrOJse_XJ6Hoq6bPvTTy93FcQcltgagiwIDRuVCoM47k-KKjYPCq1Fc8L5FNjDYS-lAZvJ8OsZ24tKGaG_G999LZUIkICgiGchedrfLbrRg1c6nkDPnu0gin5kZtLRdPxG0cxuqRyrCLaw2PqGLPjMN8QJMUIphj4PLyMLnOZzosJHaj_VOMLFLkHtYNtUSHu0x7NLYBfPWqtCGKEKM6QtvDXGh3qAG1yBsVAdq1G00]--></g></svg>