<svg xmlns="http://www.w3.org/2000/svg" xmlns:xlink="http://www.w3.org/1999/xlink" contentStyleType="text/css" height="1033px" preserveAspectRatio="none" style="width:260px;height:1033px;background:#FFFFFF;" version="1.1" viewBox="0 0 260 1033" width="260px" zoomAndPan="magnify"><defs/><g><ellipse cx="146.9067" cy="20" fill="#222222" rx="10" ry="10" style="stroke:#222222;stroke-width:1.0;"/><rect fill="#F1F1F1" height="33.9688" rx="12.5" ry="12.5" style="stroke:#181818;stroke-width:0.5;" width="49.3145" x="122.2495" y="50"/><text fill="#000000" font-family="sans-serif" font-size="12" lengthAdjust="spacing" textLength="29.3145" x="132.2495" y="71.1387">Start</text><polygon fill="#F1F1F1" points="146.9067,103.9688,158.9067,115.9688,146.9067,127.9688,134.9067,115.9688,146.9067,103.9688" style="stroke:#181818;stroke-width:0.5;"/><polygon fill="#F1F1F1" points="108.7048,167.9688,185.1086,167.9688,197.1086,179.9688,185.1086,191.9688,108.7048,191.9688,96.7048,179.9688,108.7048,167.9688" style="stroke:#181818;stroke-width:0.5;"/><text fill="#000000" font-family="sans-serif" font-size="11" lengthAdjust="spacing" textLength="19.0083" x="150.9067" y="202.1792">yes</text><text fill="#000000" font-family="sans-serif" font-size="11" lengthAdjust="spacing" textLength="76.4038" x="108.7048" y="183.7769">gear present?</text><text fill="#000000" font-family="sans-serif" font-size="11" lengthAdjust="spacing" textLength="13.7017" x="197.1086" y="177.3745">no</text><polygon fill="#F1F1F1" points="146.9067,223.6792,158.9067,235.6792,146.9067,247.6792,134.9067,235.6792,146.9067,223.6792" style="stroke:#181818;stroke-width:0.5;"/><polygon fill="#F1F1F1" points="107.687,287.6792,186.1265,287.6792,198.1265,299.6792,186.1265,311.6792,107.687,311.6792,95.687,299.6792,107.687,287.6792" style="stroke:#181818;stroke-width:0.5;"/><text fill="#000000" font-family="sans-serif" font-size="11" lengthAdjust="spacing" textLength="19.0083" x="150.9067" y="321.8896">yes</text><text fill="#000000" font-family="sans-serif" font-size="11" lengthAdjust="spacing" textLength="78.4395" x="107.687" y="303.4873">start pressed?</text><text fill="#000000" font-family="sans-serif" font-size="11" lengthAdjust="spacing" textLength="13.7017" x="198.1265" y="297.085">no</text><rect fill="#F1F1F1" height="33.9688" rx="12.5" ry="12.5" style="stroke:#181818;stroke-width:0.5;" width="107.2109" x="93.3013" y="343.3896"/><text fill="#000000" font-family="sans-serif" font-size="12" lengthAdjust="spacing" textLength="87.2109" x="103.3013" y="364.5283">start transport</text><rect fill="#F1F1F1" height="33.9688" rx="12.5" ry="12.5" style="stroke:#181818;stroke-width:0.5;" width="56.5918" x="118.6108" y="441.3584"/><text fill="#000000" font-family="sans-serif" font-size="12" lengthAdjust="spacing" textLength="36.5918" x="128.6108" y="462.4971">clamp</text><rect fill="#F1F1F1" height="33.9688" rx="12.5" ry="12.5" style="stroke:#181818;stroke-width:0.5;" width="95.5391" x="99.1372" y="502.8271"/><text fill="#000000" font-family="sans-serif" font-size="12" lengthAdjust="spacing" textLength="75.5391" x="109.1372" y="523.9658">check clamp</text><polygon fill="#F1F1F1" points="146.9067,397.3584,158.9067,409.3584,146.9067,421.3584,134.9067,409.3584,146.9067,397.3584" style="stroke:#181818;stroke-width:0.5;"/><polygon fill="#F1F1F1" points="106.0864,556.7959,187.7271,556.7959,199.7271,568.7959,187.7271,580.7959,106.0864,580.7959,94.0864,568.7959,106.0864,556.7959" style="stroke:#181818;stroke-width:0.5;"/><text fill="#000000" font-family="sans-serif" font-size="11" lengthAdjust="spacing" textLength="19.0083" x="150.9067" y="591.0063">yes</text><text fill="#000000" font-family="sans-serif" font-size="11" lengthAdjust="spacing" textLength="81.6406" x="106.0864" y="572.604">gear clamped?</text><text fill="#000000" font-family="sans-serif" font-size="11" lengthAdjust="spacing" textLength="13.7017" x="199.7271" y="566.2017">no</text><rect fill="#F1F1F1" height="33.9688" rx="12.5" ry="12.5" style="stroke:#181818;stroke-width:0.5;" width="78.6465" x="107.5835" y="612.5063"/><text fill="#000000" font-family="sans-serif" font-size="12" lengthAdjust="spacing" textLength="58.6465" x="117.5835" y="633.645">deburring</text><rect fill="#F1F1F1" height="33.9688" rx="12.5" ry="12.5" style="stroke:#181818;stroke-width:0.5;" width="70.8301" x="111.4917" y="666.4751"/><text fill="#000000" font-family="sans-serif" font-size="12" lengthAdjust="spacing" textLength="50.8301" x="121.4917" y="687.6138">cleaning</text><rect fill="#F1F1F1" height="33.9688" rx="12.5" ry="12.5" style="stroke:#181818;stroke-width:0.5;" width="99.998" x="96.9077" y="720.4438"/><text fill="#000000" font-family="sans-serif" font-size="12" lengthAdjust="spacing" textLength="79.998" x="106.9077" y="741.5825">check quality</text><rect fill="#F1F1F1" height="33.9688" rx="12.5" ry="12.5" style="stroke:#181818;stroke-width:0.5;" width="49.6602" x="122.0767" y="774.4126"/><text fill="#000000" font-family="sans-serif" font-size="12" lengthAdjust="spacing" textLength="29.6602" x="132.0767" y="795.5513">defix</text><polygon fill="#F1F1F1" points="116.8743,828.3813,176.9392,828.3813,188.9392,840.3813,176.9392,852.3813,116.8743,852.3813,104.8743,840.3813,116.8743,828.3813" style="stroke:#181818;stroke-width:0.5;"/><text fill="#000000" font-family="sans-serif" font-size="11" lengthAdjust="spacing" textLength="60.0649" x="116.8743" y="844.1895">quality ok?</text><text fill="#000000" font-family="sans-serif" font-size="11" lengthAdjust="spacing" textLength="19.0083" x="85.866" y="837.7871">yes</text><text fill="#000000" font-family="sans-serif" font-size="11" lengthAdjust="spacing" textLength="13.7017" x="188.9392" y="837.7871">no</text><rect fill="#F1F1F1" height="33.9688" rx="12.5" ry="12.5" style="stroke:#181818;stroke-width:0.5;" width="142.7539" x="11" y="862.3813"/><text fill="#000000" font-family="sans-serif" font-size="12" lengthAdjust="spacing" textLength="122.7539" x="21" y="883.52">transport to end pos</text><rect fill="#F1F1F1" height="33.9688" rx="12.5" ry="12.5" style="stroke:#181818;stroke-width:0.5;" width="75.3652" x="173.7539" y="862.3813"/><text fill="#000000" font-family="sans-serif" font-size="12" lengthAdjust="spacing" textLength="55.3652" x="183.7539" y="883.52">put away</text><polygon fill="#F1F1F1" points="146.9067,902.3501,158.9067,914.3501,146.9067,926.3501,134.9067,914.3501,146.9067,902.3501" style="stroke:#181818;stroke-width:0.5;"/><rect fill="#F1F1F1" height="33.9688" rx="12.5" ry="12.5" style="stroke:#181818;stroke-width:0.5;" width="42.6055" x="125.604" y="946.3501"/><text fill="#000000" font-family="sans-serif" font-size="12" lengthAdjust="spacing" textLength="22.6055" x="135.604" y="967.4888">end</text><ellipse cx="146.9067" cy="1011.3188" fill="none" rx="11" ry="11" style="stroke:#222222;stroke-width:1.0;"/><ellipse cx="146.9067" cy="1011.3188" fill="#222222" rx="6" ry="6" style="stroke:#222222;stroke-width:1.0;"/><line style="stroke:#181818;stroke-width:1.0;" x1="146.9067" x2="146.9067" y1="30" y2="50"/><polygon fill="#181818" points="142.9067,40,146.9067,50,150.9067,40,146.9067,44" style="stroke:#181818;stroke-width:1.0;"/><line style="stroke:#181818;stroke-width:1.0;" x1="146.9067" x2="146.9067" y1="127.9688" y2="167.9688"/><polygon fill="#181818" points="142.9067,157.9688,146.9067,167.9688,150.9067,157.9688,146.9067,161.9688" style="stroke:#181818;stroke-width:1.0;"/><line style="stroke:#181818;stroke-width:1.0;" x1="197.1086" x2="209.1086" y1="179.9688" y2="179.9688"/><polygon fill="#181818" points="205.1086,147.9688,209.1086,137.9688,213.1086,147.9688,209.1086,143.9688" style="stroke:#181818;stroke-width:1.0;"/><line style="stroke:#181818;stroke-width:1.0;" x1="209.1086" x2="209.1086" y1="115.9688" y2="179.9688"/><line style="stroke:#181818;stroke-width:1.0;" x1="209.1086" x2="158.9067" y1="115.9688" y2="115.9688"/><polygon fill="#181818" points="168.9067,111.9688,158.9067,115.9688,168.9067,119.9688,164.9067,115.9688" style="stroke:#181818;stroke-width:1.0;"/><line style="stroke:#181818;stroke-width:1.0;" x1="146.9067" x2="146.9067" y1="83.9688" y2="103.9688"/><polygon fill="#181818" points="142.9067,93.9688,146.9067,103.9688,150.9067,93.9688,146.9067,97.9688" style="stroke:#181818;stroke-width:1.0;"/><line style="stroke:#181818;stroke-width:1.0;" x1="146.9067" x2="146.9067" y1="247.6792" y2="287.6792"/><polygon fill="#181818" points="142.9067,277.6792,146.9067,287.6792,150.9067,277.6792,146.9067,281.6792" style="stroke:#181818;stroke-width:1.0;"/><line style="stroke:#181818;stroke-width:1.0;" x1="198.1265" x2="210.1265" y1="299.6792" y2="299.6792"/><polygon fill="#181818" points="206.1265,267.6792,210.1265,257.6792,214.1265,267.6792,210.1265,263.6792" style="stroke:#181818;stroke-width:1.0;"/><line style="stroke:#181818;stroke-width:1.0;" x1="210.1265" x2="210.1265" y1="235.6792" y2="299.6792"/><line style="stroke:#181818;stroke-width:1.0;" x1="210.1265" x2="158.9067" y1="235.6792" y2="235.6792"/><polygon fill="#181818" points="168.9067,231.6792,158.9067,235.6792,168.9067,239.6792,164.9067,235.6792" style="stroke:#181818;stroke-width:1.0;"/><line style="stroke:#181818;stroke-width:1.0;" x1="146.9067" x2="146.9067" y1="191.9688" y2="223.6792"/><polygon fill="#181818" points="142.9067,213.6792,146.9067,223.6792,150.9067,213.6792,146.9067,217.6792" style="stroke:#181818;stroke-width:1.0;"/><line style="stroke:#181818;stroke-width:1.0;" x1="146.9067" x2="146.9067" y1="311.6792" y2="343.3896"/><polygon fill="#181818" points="142.9067,333.3896,146.9067,343.3896,150.9067,333.3896,146.9067,337.3896" style="stroke:#181818;stroke-width:1.0;"/><line style="stroke:#181818;stroke-width:1.0;" x1="146.9067" x2="146.9067" y1="475.3271" y2="502.8271"/><polygon fill="#181818" points="142.9067,492.8271,146.9067,502.8271,150.9067,492.8271,146.9067,496.8271" style="stroke:#181818;stroke-width:1.0;"/><line style="stroke:#181818;stroke-width:1.0;" x1="146.9067" x2="146.9067" y1="421.3584" y2="441.3584"/><polygon fill="#181818" points="142.9067,431.3584,146.9067,441.3584,150.9067,431.3584,146.9067,435.3584" style="stroke:#181818;stroke-width:1.0;"/><line style="stroke:#181818;stroke-width:1.0;" x1="199.7271" x2="211.7271" y1="568.7959" y2="568.7959"/><polygon fill="#181818" points="207.7271,495.3271,211.7271,485.3271,215.7271,495.3271,211.7271,491.3271" style="stroke:#181818;stroke-width:1.0;"/><line style="stroke:#181818;stroke-width:1.0;" x1="211.7271" x2="211.7271" y1="409.3584" y2="568.7959"/><line style="stroke:#181818;stroke-width:1.0;" x1="211.7271" x2="158.9067" y1="409.3584" y2="409.3584"/><polygon fill="#181818" points="168.9067,405.3584,158.9067,409.3584,168.9067,413.3584,164.9067,409.3584" style="stroke:#181818;stroke-width:1.0;"/><line style="stroke:#181818;stroke-width:1.0;" x1="146.9067" x2="146.9067" y1="536.7959" y2="556.7959"/><polygon fill="#181818" points="142.9067,546.7959,146.9067,556.7959,150.9067,546.7959,146.9067,550.7959" style="stroke:#181818;stroke-width:1.0;"/><line style="stroke:#181818;stroke-width:1.0;" x1="146.9067" x2="146.9067" y1="377.3584" y2="397.3584"/><polygon fill="#181818" points="142.9067,387.3584,146.9067,397.3584,150.9067,387.3584,146.9067,391.3584" style="stroke:#181818;stroke-width:1.0;"/><line style="stroke:#181818;stroke-width:1.0;" x1="146.9067" x2="146.9067" y1="580.7959" y2="612.5063"/><polygon fill="#181818" points="142.9067,602.5063,146.9067,612.5063,150.9067,602.5063,146.9067,606.5063" style="stroke:#181818;stroke-width:1.0;"/><line style="stroke:#181818;stroke-width:1.0;" x1="146.9067" x2="146.9067" y1="646.4751" y2="666.4751"/><polygon fill="#181818" points="142.9067,656.4751,146.9067,666.4751,150.9067,656.4751,146.9067,660.4751" style="stroke:#181818;stroke-width:1.0;"/><line style="stroke:#181818;stroke-width:1.0;" x1="146.9067" x2="146.9067" y1="700.4438" y2="720.4438"/><polygon fill="#181818" points="142.9067,710.4438,146.9067,720.4438,150.9067,710.4438,146.9067,714.4438" style="stroke:#181818;stroke-width:1.0;"/><line style="stroke:#181818;stroke-width:1.0;" x1="146.9067" x2="146.9067" y1="754.4126" y2="774.4126"/><polygon fill="#181818" points="142.9067,764.4126,146.9067,774.4126,150.9067,764.4126,146.9067,768.4126" style="stroke:#181818;stroke-width:1.0;"/><line style="stroke:#181818;stroke-width:1.0;" x1="104.8743" x2="82.377" y1="840.3813" y2="840.3813"/><line style="stroke:#181818;stroke-width:1.0;" x1="82.377" x2="82.377" y1="840.3813" y2="862.3813"/><polygon fill="#181818" points="78.377,852.3813,82.377,862.3813,86.377,852.3813,82.377,856.3813" style="stroke:#181818;stroke-width:1.0;"/><line style="stroke:#181818;stroke-width:1.0;" x1="188.9392" x2="211.4365" y1="840.3813" y2="840.3813"/><line style="stroke:#181818;stroke-width:1.0;" x1="211.4365" x2="211.4365" y1="840.3813" y2="862.3813"/><polygon fill="#181818" points="207.4365,852.3813,211.4365,862.3813,215.4365,852.3813,211.4365,856.3813" style="stroke:#181818;stroke-width:1.0;"/><line style="stroke:#181818;stroke-width:1.0;" x1="82.377" x2="82.377" y1="896.3501" y2="914.3501"/><line style="stroke:#181818;stroke-width:1.0;" x1="82.377" x2="134.9067" y1="914.3501" y2="914.3501"/><polygon fill="#181818" points="124.9067,910.3501,134.9067,914.3501,124.9067,918.3501,128.9067,914.3501" style="stroke:#181818;stroke-width:1.0;"/><line style="stroke:#181818;stroke-width:1.0;" x1="211.4365" x2="211.4365" y1="896.3501" y2="914.3501"/><line style="stroke:#181818;stroke-width:1.0;" x1="211.4365" x2="158.9067" y1="914.3501" y2="914.3501"/><polygon fill="#181818" points="168.9067,910.3501,158.9067,914.3501,168.9067,918.3501,164.9067,914.3501" style="stroke:#181818;stroke-width:1.0;"/><line style="stroke:#181818;stroke-width:1.0;" x1="146.9067" x2="146.9067" y1="808.3813" y2="828.3813"/><polygon fill="#181818" points="142.9067,818.3813,146.9067,828.3813,150.9067,818.3813,146.9067,822.3813" style="stroke:#181818;stroke-width:1.0;"/><line style="stroke:#181818;stroke-width:1.0;" x1="146.9067" x2="146.9067" y1="926.3501" y2="946.3501"/><polygon fill="#181818" points="142.9067,936.3501,146.9067,946.3501,150.9067,936.3501,146.9067,940.3501" style="stroke:#181818;stroke-width:1.0;"/><line style="stroke:#181818;stroke-width:1.0;" x1="146.9067" x2="146.9067" y1="980.3188" y2="1000.3188"/><polygon fill="#181818" points="142.9067,990.3188,146.9067,1000.3188,150.9067,990.3188,146.9067,994.3188" style="stroke:#181818;stroke-width:1.0;"/><!--SRC=[TOvD4e8m38NtEKMMS8LsuI4yGOG07MfRcp38xIqL7HUuUlbxNvuePGKmrrqjP4vCUWYka_ECpSYKCMKM3dffqGas8ROOecApiRJdBjc9rIRSdzhC-qGp1KdnvxtfFDsJBJfnD-FHdOIgct_qdczBpYwCEyWpXQEipCT2tkbczxF1FIsu0PjZY74kH9quV53VYAWHEVIOebXWBro_WacB8grKU6LRK62AMW3Hc5u0]--></g></svg>