<svg xmlns="http://www.w3.org/2000/svg" xmlns:xlink="http://www.w3.org/1999/xlink" contentStyleType="text/css" height="1171px" preserveAspectRatio="none" style="width:591px;height:1171px;background:#FFFFFF;" version="1.1" viewBox="0 0 591 1171" width="591px" zoomAndPan="magnify"><defs/><g><text fill="#000000" font-family="sans-serif" font-size="14" font-weight="bold" lengthAdjust="spacing" textLength="181.2275" x="203.856" y="32.9951">Git Workflow Overview</text><rect fill="none" height="228.2031" style="stroke:#000000;stroke-width:1.5;" width="321.3008" x="135.3193" y="48.2969"/><text fill="#000000" font-family="sans-serif" font-size="14" lengthAdjust="spacing" textLength="301.3008" x="145.3193" y="63.292">GitHubOrganization as GitHubOrganization</text><rect fill="#F1F1F1" height="33.9688" rx="12.5" ry="12.5" style="stroke:#181818;stroke-width:0.5;" width="146.7148" x="222.6123" y="84.5938"/><text fill="#000000" font-family="sans-serif" font-size="12" lengthAdjust="spacing" textLength="126.7148" x="232.6123" y="105.7324">Organization created</text><rect fill="#F1F1F1" height="33.9688" rx="12.5" ry="12.5" style="stroke:#181818;stroke-width:0.5;" width="117.0137" x="237.4629" y="153.5625"/><text fill="#000000" font-family="sans-serif" font-size="12" lengthAdjust="spacing" textLength="97.0137" x="247.4629" y="174.7012">Members added</text><rect fill="#F1F1F1" height="33.9688" rx="12.5" ry="12.5" style="stroke:#181818;stroke-width:0.5;" width="174.582" x="208.6787" y="222.5313"/><text fill="#000000" font-family="sans-serif" font-size="12" lengthAdjust="spacing" textLength="154.582" x="218.6787" y="243.6699">Members become owners</text><rect fill="none" height="90.2656" style="stroke:#000000;stroke-width:1.5;" width="288.7832" x="151.5781" y="286.5"/><text fill="#000000" font-family="sans-serif" font-size="14" lengthAdjust="spacing" textLength="136.8145" x="227.5625" y="301.4951">GitRepo as GitRepo</text><rect fill="#F1F1F1" height="33.9688" rx="12.5" ry="12.5" style="stroke:#181818;stroke-width:0.5;" width="268.7832" x="161.5781" y="322.7969"/><text fill="#000000" font-family="sans-serif" font-size="12" lengthAdjust="spacing" textLength="248.7832" x="171.5781" y="343.9355">Git repository created in the organization</text><rect fill="none" height="435.1094" style="stroke:#000000;stroke-width:1.5;" width="315.4375" x="138.251" y="386.7656"/><text fill="#000000" font-family="sans-serif" font-size="14" lengthAdjust="spacing" textLength="154.5332" x="218.7031" y="401.7607">Members as Members</text><rect fill="#F1F1F1" height="33.9688" rx="12.5" ry="12.5" style="stroke:#181818;stroke-width:0.5;" width="256.1387" x="167.9004" y="423.0625"/><text fill="#000000" font-family="sans-serif" font-size="12" lengthAdjust="spacing" textLength="236.1387" x="177.9004" y="444.2012">All members fork the organization repo</text><rect fill="#F1F1F1" height="33.9688" rx="12.5" ry="12.5" style="stroke:#181818;stroke-width:0.5;" width="254.7266" x="168.6064" y="492.0313"/><text fill="#000000" font-family="sans-serif" font-size="12" lengthAdjust="spacing" textLength="234.7266" x="178.6064" y="513.1699">All members clone this fork to VS Code</text><rect fill="#F1F1F1" height="33.9688" rx="12.5" ry="12.5" style="stroke:#181818;stroke-width:0.5;" width="137.3867" x="227.2764" y="561"/><text fill="#000000" font-family="sans-serif" font-size="12" lengthAdjust="spacing" textLength="117.3867" x="237.2764" y="582.1387">Make changes here</text><rect fill="#F1F1F1" height="33.9688" rx="12.5" ry="12.5" style="stroke:#181818;stroke-width:0.5;" width="163.5781" x="214.1807" y="629.9688"/><text fill="#000000" font-family="sans-serif" font-size="12" lengthAdjust="spacing" textLength="143.5781" x="224.1807" y="651.1074">Commit changes locally</text><rect fill="#F1F1F1" height="33.9688" rx="12.5" ry="12.5" style="stroke:#181818;stroke-width:0.5;" width="156.002" x="217.9688" y="698.9375"/><text fill="#000000" font-family="sans-serif" font-size="12" lengthAdjust="spacing" textLength="136.002" x="227.9688" y="720.0762">Push to their own repo</text><rect fill="#F1F1F1" height="33.9688" rx="12.5" ry="12.5" style="stroke:#181818;stroke-width:0.5;" width="295.4375" x="148.251" y="767.9063"/><text fill="#000000" font-family="sans-serif" font-size="12" lengthAdjust="spacing" textLength="275.4375" x="158.251" y="789.0449">Send a pull request to the organization's repo</text><rect fill="none" height="90.2656" style="stroke:#000000;stroke-width:1.5;" width="312.0625" x="139.9385" y="831.875"/><text fill="#000000" font-family="sans-serif" font-size="14" lengthAdjust="spacing" textLength="112.6699" x="239.6348" y="846.8701">Merge as Merge</text><rect fill="#F1F1F1" height="33.9688" rx="12.5" ry="12.5" style="stroke:#181818;stroke-width:0.5;" width="292.0625" x="149.9385" y="868.1719"/><text fill="#000000" font-family="sans-serif" font-size="12" lengthAdjust="spacing" textLength="272.0625" x="159.9385" y="889.3105">One of the members merges the pull request</text><rect fill="none" height="228.2031" style="stroke:#000000;stroke-width:1.5;" width="569.9395" x="11" y="932.1406"/><text fill="#000000" font-family="sans-serif" font-size="14" lengthAdjust="spacing" textLength="126.1777" x="232.8809" y="947.1357">Update as Update</text><rect fill="#F1F1F1" height="33.9688" rx="12.5" ry="12.5" style="stroke:#181818;stroke-width:0.5;" width="549.9395" x="21" y="968.4375"/><text fill="#000000" font-family="sans-serif" font-size="12" lengthAdjust="spacing" textLength="529.9395" x="31" y="989.5762">When starting to code, a member's repo is first updated based on the organization repo</text><rect fill="#F1F1F1" height="33.9688" rx="12.5" ry="12.5" style="stroke:#181818;stroke-width:0.5;" width="228.998" x="181.4707" y="1037.4063"/><text fill="#000000" font-family="sans-serif" font-size="12" lengthAdjust="spacing" textLength="208.998" x="191.4707" y="1058.5449">Then the member does a local pull</text><rect fill="#F1F1F1" height="33.9688" rx="12.5" ry="12.5" style="stroke:#181818;stroke-width:0.5;" width="221.1172" x="185.4111" y="1106.375"/><text fill="#000000" font-family="sans-serif" font-size="12" lengthAdjust="spacing" textLength="201.1172" x="195.4111" y="1127.5137">And starts making changes again</text><line style="stroke:#181818;stroke-width:1.0;" x1="295.9697" x2="295.9697" y1="118.5625" y2="153.5625"/><polygon fill="#181818" points="291.9697,143.5625,295.9697,153.5625,299.9697,143.5625,295.9697,147.5625" style="stroke:#181818;stroke-width:1.0;"/><line style="stroke:#181818;stroke-width:1.0;" x1="295.9697" x2="295.9697" y1="187.5313" y2="222.5313"/><polygon fill="#181818" points="291.9697,212.5313,295.9697,222.5313,299.9697,212.5313,295.9697,216.5313" style="stroke:#181818;stroke-width:1.0;"/><line style="stroke:#181818;stroke-width:1.0;" x1="295.9697" x2="295.9697" y1="256.5" y2="322.7969"/><polygon fill="#181818" points="291.9697,312.7969,295.9697,322.7969,299.9697,312.7969,295.9697,316.7969" style="stroke:#181818;stroke-width:1.0;"/><line style="stroke:#181818;stroke-width:1.0;" x1="295.9697" x2="295.9697" y1="457.0313" y2="492.0313"/><polygon fill="#181818" points="291.9697,482.0313,295.9697,492.0313,299.9697,482.0313,295.9697,486.0313" style="stroke:#181818;stroke-width:1.0;"/><line style="stroke:#181818;stroke-width:1.0;" x1="295.9697" x2="295.9697" y1="526" y2="561"/><polygon fill="#181818" points="291.9697,551,295.9697,561,299.9697,551,295.9697,555" style="stroke:#181818;stroke-width:1.0;"/><line style="stroke:#181818;stroke-width:1.0;" x1="295.9697" x2="295.9697" y1="594.9688" y2="629.9688"/><polygon fill="#181818" points="291.9697,619.9688,295.9697,629.9688,299.9697,619.9688,295.9697,623.9688" style="stroke:#181818;stroke-width:1.0;"/><line style="stroke:#181818;stroke-width:1.0;" x1="295.9697" x2="295.9697" y1="663.9375" y2="698.9375"/><polygon fill="#181818" points="291.9697,688.9375,295.9697,698.9375,299.9697,688.9375,295.9697,692.9375" style="stroke:#181818;stroke-width:1.0;"/><line style="stroke:#181818;stroke-width:1.0;" x1="295.9697" x2="295.9697" y1="732.9063" y2="767.9063"/><polygon fill="#181818" points="291.9697,757.9063,295.9697,767.9063,299.9697,757.9063,295.9697,761.9063" style="stroke:#181818;stroke-width:1.0;"/><line style="stroke:#181818;stroke-width:1.0;" x1="295.9697" x2="295.9697" y1="356.7656" y2="423.0625"/><polygon fill="#181818" points="291.9697,413.0625,295.9697,423.0625,299.9697,413.0625,295.9697,417.0625" style="stroke:#181818;stroke-width:1.0;"/><line style="stroke:#181818;stroke-width:1.0;" x1="295.9697" x2="295.9697" y1="801.875" y2="868.1719"/><polygon fill="#181818" points="291.9697,858.1719,295.9697,868.1719,299.9697,858.1719,295.9697,862.1719" style="stroke:#181818;stroke-width:1.0;"/><line style="stroke:#181818;stroke-width:1.0;" x1="295.9697" x2="295.9697" y1="1002.4063" y2="1037.4063"/><polygon fill="#181818" points="291.9697,1027.4063,295.9697,1037.4063,299.9697,1027.4063,295.9697,1031.4063" style="stroke:#181818;stroke-width:1.0;"/><line style="stroke:#181818;stroke-width:1.0;" x1="295.9697" x2="295.9697" y1="1071.375" y2="1106.375"/><polygon fill="#181818" points="291.9697,1096.375,295.9697,1106.375,299.9697,1096.375,295.9697,1100.375" style="stroke:#181818;stroke-width:1.0;"/><line style="stroke:#181818;stroke-width:1.0;" x1="295.9697" x2="295.9697" y1="902.1406" y2="968.4375"/><polygon fill="#181818" points="291.9697,958.4375,295.9697,968.4375,299.9697,958.4375,295.9697,962.4375" style="stroke:#181818;stroke-width:1.0;"/><!--SRC=[VP9DJiCm48NtESMm0YHEG5TLLPK5KDGMkdRiIMBLyHJRwG-8kpDEupQa4bb4oepdlM-U4tGm23CTO4rkKnZQmto7RgTndsKt2Wjj4HRJoMhyEdkUtXtkmQ4CmfOyTG3XuP1bbpRhF3Nvt9N2wYyHDDbx-Cw0dyT-4QH34L2DJgqNh7Dq7eHILxKS9TK8jBVyDSf-1cuBtDBP8cxXkE1r87TC9g0jX8ebUW03eSxiB3Gs1keEeE1OhkPRcz7rOMc8umgLJdC47qkOaCAqbjWWo8hpGmyLkbIVK5qpVUeOaiAOOzTyQtmLfPX2knX5ttw9Le60RSCO3ZyRzA4x-uVurdT3WyLTYPShOdOgsj6qK1qF-BRKTnZ8l6yL9ttMMLTemGVXWhPbX94Sm0D3dbGx58WXQSUuJJkk81UUtsJ_ZNiLnI-8e8Zvn2cnbZ5T2yVICl0IOXD1KhYY53h-0Ry0]--></g></svg>