<svg xmlns="http://www.w3.org/2000/svg" xmlns:xlink="http://www.w3.org/1999/xlink" contentStyleType="text/css" height="1087px" preserveAspectRatio="none" style="width:260px;height:1087px;background:#FFFFFF;" version="1.1" viewBox="0 0 260 1087" width="260px" zoomAndPan="magnify"><defs/><g><ellipse cx="146.9067" cy="20" fill="#222222" rx="10" ry="10" style="stroke:#222222;stroke-width:1.0;"/><rect fill="#F1F1F1" height="33.9688" rx="12.5" ry="12.5" style="stroke:#181818;stroke-width:0.5;" width="49.3145" x="122.2495" y="50"/><text fill="#000000" font-family="sans-serif" font-size="12" lengthAdjust="spacing" textLength="29.3145" x="132.2495" y="71.1387">Start</text><rect fill="#F1F1F1" height="33.9688" rx="12.5" ry="12.5" style="stroke:#181818;stroke-width:0.5;" width="83.2813" x="105.2661" y="103.9688"/><text fill="#000000" font-family="sans-serif" font-size="12" lengthAdjust="spacing" textLength="63.2813" x="115.2661" y="125.1074">Star sebas</text><polygon fill="#F1F1F1" points="146.9067,157.9375,158.9067,169.9375,146.9067,181.9375,134.9067,169.9375,146.9067,157.9375" style="stroke:#181818;stroke-width:0.5;"/><polygon fill="#F1F1F1" points="108.7048,221.9375,185.1086,221.9375,197.1086,233.9375,185.1086,245.9375,108.7048,245.9375,96.7048,233.9375,108.7048,221.9375" style="stroke:#181818;stroke-width:0.5;"/><text fill="#000000" font-family="sans-serif" font-size="11" lengthAdjust="spacing" textLength="19.0083" x="150.9067" y="256.1479">yes</text><text fill="#000000" font-family="sans-serif" font-size="11" lengthAdjust="spacing" textLength="76.4038" x="108.7048" y="237.7456">gear present?</text><text fill="#000000" font-family="sans-serif" font-size="11" lengthAdjust="spacing" textLength="13.7017" x="197.1086" y="231.3433">no</text><polygon fill="#F1F1F1" points="146.9067,277.6479,158.9067,289.6479,146.9067,301.6479,134.9067,289.6479,146.9067,277.6479" style="stroke:#181818;stroke-width:0.5;"/><polygon fill="#F1F1F1" points="107.687,341.6479,186.1265,341.6479,198.1265,353.6479,186.1265,365.6479,107.687,365.6479,95.687,353.6479,107.687,341.6479" style="stroke:#181818;stroke-width:0.5;"/><text fill="#000000" font-family="sans-serif" font-size="11" lengthAdjust="spacing" textLength="19.0083" x="150.9067" y="375.8584">yes</text><text fill="#000000" font-family="sans-serif" font-size="11" lengthAdjust="spacing" textLength="78.4395" x="107.687" y="357.4561">start pressed?</text><text fill="#000000" font-family="sans-serif" font-size="11" lengthAdjust="spacing" textLength="13.7017" x="198.1265" y="351.0537">no</text><rect fill="#F1F1F1" height="33.9688" rx="12.5" ry="12.5" style="stroke:#181818;stroke-width:0.5;" width="107.2109" x="93.3013" y="397.3584"/><text fill="#000000" font-family="sans-serif" font-size="12" lengthAdjust="spacing" textLength="87.2109" x="103.3013" y="418.4971">start transport</text><rect fill="#F1F1F1" height="33.9688" rx="12.5" ry="12.5" style="stroke:#181818;stroke-width:0.5;" width="56.5918" x="118.6108" y="495.3271"/><text fill="#000000" font-family="sans-serif" font-size="12" lengthAdjust="spacing" textLength="36.5918" x="128.6108" y="516.4658">clamp</text><rect fill="#F1F1F1" height="33.9688" rx="12.5" ry="12.5" style="stroke:#181818;stroke-width:0.5;" width="95.5391" x="99.1372" y="556.7959"/><text fill="#000000" font-family="sans-serif" font-size="12" lengthAdjust="spacing" textLength="75.5391" x="109.1372" y="577.9346">check clamp</text><polygon fill="#F1F1F1" points="146.9067,451.3271,158.9067,463.3271,146.9067,475.3271,134.9067,463.3271,146.9067,451.3271" style="stroke:#181818;stroke-width:0.5;"/><polygon fill="#F1F1F1" points="106.0864,610.7646,187.7271,610.7646,199.7271,622.7646,187.7271,634.7646,106.0864,634.7646,94.0864,622.7646,106.0864,610.7646" style="stroke:#181818;stroke-width:0.5;"/><text fill="#000000" font-family="sans-serif" font-size="11" lengthAdjust="spacing" textLength="19.0083" x="150.9067" y="644.9751">yes</text><text fill="#000000" font-family="sans-serif" font-size="11" lengthAdjust="spacing" textLength="81.6406" x="106.0864" y="626.5728">gear clamped?</text><text fill="#000000" font-family="sans-serif" font-size="11" lengthAdjust="spacing" textLength="13.7017" x="199.7271" y="620.1704">no</text><rect fill="#F1F1F1" height="33.9688" rx="12.5" ry="12.5" style="stroke:#181818;stroke-width:0.5;" width="78.6465" x="107.5835" y="666.4751"/><text fill="#000000" font-family="sans-serif" font-size="12" lengthAdjust="spacing" textLength="58.6465" x="117.5835" y="687.6138">deburring</text><rect fill="#F1F1F1" height="33.9688" rx="12.5" ry="12.5" style="stroke:#181818;stroke-width:0.5;" width="70.8301" x="111.4917" y="720.4438"/><text fill="#000000" font-family="sans-serif" font-size="12" lengthAdjust="spacing" textLength="50.8301" x="121.4917" y="741.5825">cleaning</text><rect fill="#F1F1F1" height="33.9688" rx="12.5" ry="12.5" style="stroke:#181818;stroke-width:0.5;" width="99.998" x="96.9077" y="774.4126"/><text fill="#000000" font-family="sans-serif" font-size="12" lengthAdjust="spacing" textLength="79.998" x="106.9077" y="795.5513">check quality</text><rect fill="#F1F1F1" height="33.9688" rx="12.5" ry="12.5" style="stroke:#181818;stroke-width:0.5;" width="49.6602" x="122.0767" y="828.3813"/><text fill="#000000" font-family="sans-serif" font-size="12" lengthAdjust="spacing" textLength="29.6602" x="132.0767" y="849.52">defix</text><polygon fill="#F1F1F1" points="116.8743,882.3501,176.9392,882.3501,188.9392,894.3501,176.9392,906.3501,116.8743,906.3501,104.8743,894.3501,116.8743,882.3501" style="stroke:#181818;stroke-width:0.5;"/><text fill="#000000" font-family="sans-serif" font-size="11" lengthAdjust="spacing" textLength="60.0649" x="116.8743" y="898.1582">quality ok?</text><text fill="#000000" font-family="sans-serif" font-size="11" lengthAdjust="spacing" textLength="19.0083" x="85.866" y="891.7559">yes</text><text fill="#000000" font-family="sans-serif" font-size="11" lengthAdjust="spacing" textLength="13.7017" x="188.9392" y="891.7559">no</text><rect fill="#F1F1F1" height="33.9688" rx="12.5" ry="12.5" style="stroke:#181818;stroke-width:0.5;" width="142.7539" x="11" y="916.3501"/><text fill="#000000" font-family="sans-serif" font-size="12" lengthAdjust="spacing" textLength="122.7539" x="21" y="937.4888">transport to end pos</text><rect fill="#F1F1F1" height="33.9688" rx="12.5" ry="12.5" style="stroke:#181818;stroke-width:0.5;" width="75.3652" x="173.7539" y="916.3501"/><text fill="#000000" font-family="sans-serif" font-size="12" lengthAdjust="spacing" textLength="55.3652" x="183.7539" y="937.4888">put away</text><polygon fill="#F1F1F1" points="146.9067,956.3188,158.9067,968.3188,146.9067,980.3188,134.9067,968.3188,146.9067,956.3188" style="stroke:#181818;stroke-width:0.5;"/><rect fill="#F1F1F1" height="33.9688" rx="12.5" ry="12.5" style="stroke:#181818;stroke-width:0.5;" width="42.6055" x="125.604" y="1000.3188"/><text fill="#000000" font-family="sans-serif" font-size="12" lengthAdjust="spacing" textLength="22.6055" x="135.604" y="1021.4575">end</text><ellipse cx="146.9067" cy="1065.2876" fill="none" rx="11" ry="11" style="stroke:#222222;stroke-width:1.0;"/><ellipse cx="146.9067" cy="1065.2876" fill="#222222" rx="6" ry="6" style="stroke:#222222;stroke-width:1.0;"/><line style="stroke:#181818;stroke-width:1.0;" x1="146.9067" x2="146.9067" y1="30" y2="50"/><polygon fill="#181818" points="142.9067,40,146.9067,50,150.9067,40,146.9067,44" style="stroke:#181818;stroke-width:1.0;"/><line style="stroke:#181818;stroke-width:1.0;" x1="146.9067" x2="146.9067" y1="83.9688" y2="103.9688"/><polygon fill="#181818" points="142.9067,93.9688,146.9067,103.9688,150.9067,93.9688,146.9067,97.9688" style="stroke:#181818;stroke-width:1.0;"/><line style="stroke:#181818;stroke-width:1.0;" x1="146.9067" x2="146.9067" y1="181.9375" y2="221.9375"/><polygon fill="#181818" points="142.9067,211.9375,146.9067,221.9375,150.9067,211.9375,146.9067,215.9375" style="stroke:#181818;stroke-width:1.0;"/><line style="stroke:#181818;stroke-width:1.0;" x1="197.1086" x2="209.1086" y1="233.9375" y2="233.9375"/><polygon fill="#181818" points="205.1086,201.9375,209.1086,191.9375,213.1086,201.9375,209.1086,197.9375" style="stroke:#181818;stroke-width:1.0;"/><line style="stroke:#181818;stroke-width:1.0;" x1="209.1086" x2="209.1086" y1="169.9375" y2="233.9375"/><line style="stroke:#181818;stroke-width:1.0;" x1="209.1086" x2="158.9067" y1="169.9375" y2="169.9375"/><polygon fill="#181818" points="168.9067,165.9375,158.9067,169.9375,168.9067,173.9375,164.9067,169.9375" style="stroke:#181818;stroke-width:1.0;"/><line style="stroke:#181818;stroke-width:1.0;" x1="146.9067" x2="146.9067" y1="137.9375" y2="157.9375"/><polygon fill="#181818" points="142.9067,147.9375,146.9067,157.9375,150.9067,147.9375,146.9067,151.9375" style="stroke:#181818;stroke-width:1.0;"/><line style="stroke:#181818;stroke-width:1.0;" x1="146.9067" x2="146.9067" y1="301.6479" y2="341.6479"/><polygon fill="#181818" points="142.9067,331.6479,146.9067,341.6479,150.9067,331.6479,146.9067,335.6479" style="stroke:#181818;stroke-width:1.0;"/><line style="stroke:#181818;stroke-width:1.0;" x1="198.1265" x2="210.1265" y1="353.6479" y2="353.6479"/><polygon fill="#181818" points="206.1265,321.6479,210.1265,311.6479,214.1265,321.6479,210.1265,317.6479" style="stroke:#181818;stroke-width:1.0;"/><line style="stroke:#181818;stroke-width:1.0;" x1="210.1265" x2="210.1265" y1="289.6479" y2="353.6479"/><line style="stroke:#181818;stroke-width:1.0;" x1="210.1265" x2="158.9067" y1="289.6479" y2="289.6479"/><polygon fill="#181818" points="168.9067,285.6479,158.9067,289.6479,168.9067,293.6479,164.9067,289.6479" style="stroke:#181818;stroke-width:1.0;"/><line style="stroke:#181818;stroke-width:1.0;" x1="146.9067" x2="146.9067" y1="245.9375" y2="277.6479"/><polygon fill="#181818" points="142.9067,267.6479,146.9067,277.6479,150.9067,267.6479,146.9067,271.6479" style="stroke:#181818;stroke-width:1.0;"/><line style="stroke:#181818;stroke-width:1.0;" x1="146.9067" x2="146.9067" y1="365.6479" y2="397.3584"/><polygon fill="#181818" points="142.9067,387.3584,146.9067,397.3584,150.9067,387.3584,146.9067,391.3584" style="stroke:#181818;stroke-width:1.0;"/><line style="stroke:#181818;stroke-width:1.0;" x1="146.9067" x2="146.9067" y1="529.2959" y2="556.7959"/><polygon fill="#181818" points="142.9067,546.7959,146.9067,556.7959,150.9067,546.7959,146.9067,550.7959" style="stroke:#181818;stroke-width:1.0;"/><line style="stroke:#181818;stroke-width:1.0;" x1="146.9067" x2="146.9067" y1="475.3271" y2="495.3271"/><polygon fill="#181818" points="142.9067,485.3271,146.9067,495.3271,150.9067,485.3271,146.9067,489.3271" style="stroke:#181818;stroke-width:1.0;"/><line style="stroke:#181818;stroke-width:1.0;" x1="199.7271" x2="211.7271" y1="622.7646" y2="622.7646"/><polygon fill="#181818" points="207.7271,549.2959,211.7271,539.2959,215.7271,549.2959,211.7271,545.2959" style="stroke:#181818;stroke-width:1.0;"/><line style="stroke:#181818;stroke-width:1.0;" x1="211.7271" x2="211.7271" y1="463.3271" y2="622.7646"/><line style="stroke:#181818;stroke-width:1.0;" x1="211.7271" x2="158.9067" y1="463.3271" y2="463.3271"/><polygon fill="#181818" points="168.9067,459.3271,158.9067,463.3271,168.9067,467.3271,164.9067,463.3271" style="stroke:#181818;stroke-width:1.0;"/><line style="stroke:#181818;stroke-width:1.0;" x1="146.9067" x2="146.9067" y1="590.7646" y2="610.7646"/><polygon fill="#181818" points="142.9067,600.7646,146.9067,610.7646,150.9067,600.7646,146.9067,604.7646" style="stroke:#181818;stroke-width:1.0;"/><line style="stroke:#181818;stroke-width:1.0;" x1="146.9067" x2="146.9067" y1="431.3271" y2="451.3271"/><polygon fill="#181818" points="142.9067,441.3271,146.9067,451.3271,150.9067,441.3271,146.9067,445.3271" style="stroke:#181818;stroke-width:1.0;"/><line style="stroke:#181818;stroke-width:1.0;" x1="146.9067" x2="146.9067" y1="634.7646" y2="666.4751"/><polygon fill="#181818" points="142.9067,656.4751,146.9067,666.4751,150.9067,656.4751,146.9067,660.4751" style="stroke:#181818;stroke-width:1.0;"/><line style="stroke:#181818;stroke-width:1.0;" x1="146.9067" x2="146.9067" y1="700.4438" y2="720.4438"/><polygon fill="#181818" points="142.9067,710.4438,146.9067,720.4438,150.9067,710.4438,146.9067,714.4438" style="stroke:#181818;stroke-width:1.0;"/><line style="stroke:#181818;stroke-width:1.0;" x1="146.9067" x2="146.9067" y1="754.4126" y2="774.4126"/><polygon fill="#181818" points="142.9067,764.4126,146.9067,774.4126,150.9067,764.4126,146.9067,768.4126" style="stroke:#181818;stroke-width:1.0;"/><line style="stroke:#181818;stroke-width:1.0;" x1="146.9067" x2="146.9067" y1="808.3813" y2="828.3813"/><polygon fill="#181818" points="142.9067,818.3813,146.9067,828.3813,150.9067,818.3813,146.9067,822.3813" style="stroke:#181818;stroke-width:1.0;"/><line style="stroke:#181818;stroke-width:1.0;" x1="104.8743" x2="82.377" y1="894.3501" y2="894.3501"/><line style="stroke:#181818;stroke-width:1.0;" x1="82.377" x2="82.377" y1="894.3501" y2="916.3501"/><polygon fill="#181818" points="78.377,906.3501,82.377,916.3501,86.377,906.3501,82.377,910.3501" style="stroke:#181818;stroke-width:1.0;"/><line style="stroke:#181818;stroke-width:1.0;" x1="188.9392" x2="211.4365" y1="894.3501" y2="894.3501"/><line style="stroke:#181818;stroke-width:1.0;" x1="211.4365" x2="211.4365" y1="894.3501" y2="916.3501"/><polygon fill="#181818" points="207.4365,906.3501,211.4365,916.3501,215.4365,906.3501,211.4365,910.3501" style="stroke:#181818;stroke-width:1.0;"/><line style="stroke:#181818;stroke-width:1.0;" x1="82.377" x2="82.377" y1="950.3188" y2="968.3188"/><line style="stroke:#181818;stroke-width:1.0;" x1="82.377" x2="134.9067" y1="968.3188" y2="968.3188"/><polygon fill="#181818" points="124.9067,964.3188,134.9067,968.3188,124.9067,972.3188,128.9067,968.3188" style="stroke:#181818;stroke-width:1.0;"/><line style="stroke:#181818;stroke-width:1.0;" x1="211.4365" x2="211.4365" y1="950.3188" y2="968.3188"/><line style="stroke:#181818;stroke-width:1.0;" x1="211.4365" x2="158.9067" y1="968.3188" y2="968.3188"/><polygon fill="#181818" points="168.9067,964.3188,158.9067,968.3188,168.9067,972.3188,164.9067,968.3188" style="stroke:#181818;stroke-width:1.0;"/><line style="stroke:#181818;stroke-width:1.0;" x1="146.9067" x2="146.9067" y1="862.3501" y2="882.3501"/><polygon fill="#181818" points="142.9067,872.3501,146.9067,882.3501,150.9067,872.3501,146.9067,876.3501" style="stroke:#181818;stroke-width:1.0;"/><line style="stroke:#181818;stroke-width:1.0;" x1="146.9067" x2="146.9067" y1="980.3188" y2="1000.3188"/><polygon fill="#181818" points="142.9067,990.3188,146.9067,1000.3188,150.9067,990.3188,146.9067,994.3188" style="stroke:#181818;stroke-width:1.0;"/><line style="stroke:#181818;stroke-width:1.0;" x1="146.9067" x2="146.9067" y1="1034.2876" y2="1054.2876"/><polygon fill="#181818" points="142.9067,1044.2876,146.9067,1054.2876,150.9067,1044.2876,146.9067,1048.2876" style="stroke:#181818;stroke-width:1.0;"/><!--SRC=[TP115eCW34Jtd29BlG8iUeYU86fKdXGeYS_szWMaNTdL09dvcGSB9b5AtukQKu5fG3OgKIIK9d2irX5q2sL3JCJavTQ3PUXywC47WUvDt5-dkE1hZ6cwZEdJ8Waznr2wD90U7JvYhZQkD6xGRXUbwkGVVQ9XJydwfO0SeM_7odpkwAoyJR7DzcMKdQ5hZn2sJ9IL_1VrgmWIWFm4CUJF8iTKjoeTTm4yCFFoDAEKpcgKOWdn0m00]--></g></svg>