<svg xmlns="http://www.w3.org/2000/svg" xmlns:xlink="http://www.w3.org/1999/xlink" contentStyleType="text/css" height="583px" preserveAspectRatio="none" style="width:1107px;height:583px;background:#FFFFFF;" version="1.1" viewBox="0 0 1107 583" width="1107px" zoomAndPan="magnify"><defs/><g><!--cluster Operator--><g id="cluster_Operator"><path d="M8.5,6 L80.4844,6 A3.75,3.75 0 0 1 82.9844,8.5 L89.9844,28.2969 L484.5,28.2969 A2.5,2.5 0 0 1 487,30.7969 L487,283.1 A2.5,2.5 0 0 1 484.5,285.6 L8.5,285.6 A2.5,2.5 0 0 1 6,283.1 L6,8.5 A2.5,2.5 0 0 1 8.5,6 " fill="none" style="stroke:#000000;stroke-width:1.5;"/><line style="stroke:#000000;stroke-width:1.5;" x1="6" x2="89.9844" y1="28.2969" y2="28.2969"/><text fill="#000000" font-family="sans-serif" font-size="14" font-weight="bold" lengthAdjust="spacing" textLength="70.9844" x="10" y="20.9951">Operator</text></g><!--cluster Base Frame--><g id="cluster_Base Frame"><path d="M659.5,169.3 L753.3184,169.3 A3.75,3.75 0 0 1 755.8184,171.8 L762.8184,191.5969 L1087.5,191.5969 A2.5,2.5 0 0 1 1090,194.0969 L1090,448.39 A2.5,2.5 0 0 1 1087.5,450.89 L659.5,450.89 A2.5,2.5 0 0 1 657,448.39 L657,171.8 A2.5,2.5 0 0 1 659.5,169.3 " fill="none" style="stroke:#000000;stroke-width:1.5;"/><line style="stroke:#000000;stroke-width:1.5;" x1="657" x2="762.8184" y1="191.5969" y2="191.5969"/><text fill="#000000" font-family="sans-serif" font-size="14" font-weight="bold" lengthAdjust="spacing" textLength="92.8184" x="661" y="184.2951">Base Frame</text></g><!--cluster Industrial PC--><g id="cluster_Industrial PC"><path d="M168.5,334.6 L271.0479,334.6 A3.75,3.75 0 0 1 273.5479,337.1 L280.5479,356.8969 L630.5,356.8969 A2.5,2.5 0 0 1 633,359.3969 L633,573.69 A2.5,2.5 0 0 1 630.5,576.19 L168.5,576.19 A2.5,2.5 0 0 1 166,573.69 L166,337.1 A2.5,2.5 0 0 1 168.5,334.6 " fill="none" style="stroke:#000000;stroke-width:1.5;"/><line style="stroke:#000000;stroke-width:1.5;" x1="166" x2="280.5479" y1="356.8969" y2="356.8969"/><text fill="#000000" font-family="sans-serif" font-size="14" font-weight="bold" lengthAdjust="spacing" textLength="101.5479" x="170" y="349.5951">Industrial PC</text></g><!--entity opPut--><g id="elem_opPut"><rect fill="#F1F1F1" height="46.2969" rx="2.5" ry="2.5" style="stroke:#181818;stroke-width:0.5;" width="269.8242" x="201.09" y="60"/><rect fill="#F1F1F1" height="10" style="stroke:#181818;stroke-width:0.5;" width="15" x="450.9142" y="65"/><rect fill="#F1F1F1" height="2" style="stroke:#181818;stroke-width:0.5;" width="4" x="448.9142" y="67"/><rect fill="#F1F1F1" height="2" style="stroke:#181818;stroke-width:0.5;" width="4" x="448.9142" y="71"/><text fill="#000000" font-family="sans-serif" font-size="14" lengthAdjust="spacing" textLength="229.8242" x="216.09" y="92.9951">Operator puts gear into machine</text></g><!--entity opQuality--><g id="elem_opQuality"><rect fill="#F1F1F1" height="46.2969" rx="2.5" ry="2.5" style="stroke:#181818;stroke-width:0.5;" width="143.3115" x="22.34" y="60"/><rect fill="#F1F1F1" height="10" style="stroke:#181818;stroke-width:0.5;" width="15" x="145.6515" y="65"/><rect fill="#F1F1F1" height="2" style="stroke:#181818;stroke-width:0.5;" width="4" x="143.6515" y="67"/><rect fill="#F1F1F1" height="2" style="stroke:#181818;stroke-width:0.5;" width="4" x="143.6515" y="71"/><text fill="#000000" font-family="sans-serif" font-size="14" lengthAdjust="spacing" textLength="103.3115" x="37.34" y="92.9951">Quality control</text></g><!--entity opGet--><g id="elem_opGet"><rect fill="#F1F1F1" height="46.2969" rx="2.5" ry="2.5" style="stroke:#181818;stroke-width:0.5;" width="283.6191" x="22.19" y="223.3"/><rect fill="#F1F1F1" height="10" style="stroke:#181818;stroke-width:0.5;" width="15" x="285.8091" y="228.3"/><rect fill="#F1F1F1" height="2" style="stroke:#181818;stroke-width:0.5;" width="4" x="283.8091" y="230.3"/><rect fill="#F1F1F1" height="2" style="stroke:#181818;stroke-width:0.5;" width="4" x="283.8091" y="234.3"/><text fill="#000000" font-family="sans-serif" font-size="14" lengthAdjust="spacing" textLength="243.6191" x="37.19" y="256.2951">Operator gets gear out of machine</text></g><!--entity robot--><g id="elem_robot"><rect fill="#F1F1F1" height="46.2969" rx="2.5" ry="2.5" style="stroke:#181818;stroke-width:0.5;" width="148.5615" x="925.72" y="223.3"/><rect fill="#F1F1F1" height="10" style="stroke:#181818;stroke-width:0.5;" width="15" x="1054.2815" y="228.3"/><rect fill="#F1F1F1" height="2" style="stroke:#181818;stroke-width:0.5;" width="4" x="1052.2815" y="230.3"/><rect fill="#F1F1F1" height="2" style="stroke:#181818;stroke-width:0.5;" width="4" x="1052.2815" y="234.3"/><text fill="#000000" font-family="sans-serif" font-size="14" lengthAdjust="spacing" textLength="108.5615" x="940.72" y="256.2951">Cartesian robot</text></g><!--entity tool--><g id="elem_tool"><rect fill="#F1F1F1" height="46.2969" rx="2.5" ry="2.5" style="stroke:#181818;stroke-width:0.5;" width="69.5723" x="772.21" y="388.6"/><rect fill="#F1F1F1" height="10" style="stroke:#181818;stroke-width:0.5;" width="15" x="821.7823" y="393.6"/><rect fill="#F1F1F1" height="2" style="stroke:#181818;stroke-width:0.5;" width="4" x="819.7823" y="395.6"/><rect fill="#F1F1F1" height="2" style="stroke:#181818;stroke-width:0.5;" width="4" x="819.7823" y="399.6"/><text fill="#000000" font-family="sans-serif" font-size="14" lengthAdjust="spacing" textLength="29.5723" x="787.21" y="421.5951">Tool</text></g><!--entity vision--><g id="elem_vision"><rect fill="#F1F1F1" height="46.2969" rx="2.5" ry="2.5" style="stroke:#181818;stroke-width:0.5;" width="217.625" x="673.19" y="223.3"/><rect fill="#F1F1F1" height="10" style="stroke:#181818;stroke-width:0.5;" width="15" x="870.815" y="228.3"/><rect fill="#F1F1F1" height="2" style="stroke:#181818;stroke-width:0.5;" width="4" x="868.815" y="230.3"/><rect fill="#F1F1F1" height="2" style="stroke:#181818;stroke-width:0.5;" width="4" x="868.815" y="234.3"/><text fill="#000000" font-family="sans-serif" font-size="14" lengthAdjust="spacing" textLength="177.625" x="688.19" y="256.2951">Vision system scans gear</text></g><!--entity pcDimensions--><g id="elem_pcDimensions"><rect fill="#F1F1F1" height="46.2969" rx="2.5" ry="2.5" style="stroke:#181818;stroke-width:0.5;" width="169.9648" x="447.02" y="388.6"/><rect fill="#F1F1F1" height="10" style="stroke:#181818;stroke-width:0.5;" width="15" x="596.9848" y="393.6"/><rect fill="#F1F1F1" height="2" style="stroke:#181818;stroke-width:0.5;" width="4" x="594.9848" y="395.6"/><rect fill="#F1F1F1" height="2" style="stroke:#181818;stroke-width:0.5;" width="4" x="594.9848" y="399.6"/><text fill="#000000" font-family="sans-serif" font-size="14" lengthAdjust="spacing" textLength="129.9648" x="462.02" y="421.5951">Define dimensions</text></g><!--entity pcPath--><g id="elem_pcPath"><rect fill="#F1F1F1" height="46.2969" rx="2.5" ry="2.5" style="stroke:#181818;stroke-width:0.5;" width="168.167" x="447.92" y="513.89"/><rect fill="#F1F1F1" height="10" style="stroke:#181818;stroke-width:0.5;" width="15" x="596.087" y="518.89"/><rect fill="#F1F1F1" height="2" style="stroke:#181818;stroke-width:0.5;" width="4" x="594.087" y="520.89"/><rect fill="#F1F1F1" height="2" style="stroke:#181818;stroke-width:0.5;" width="4" x="594.087" y="524.89"/><text fill="#000000" font-family="sans-serif" font-size="14" lengthAdjust="spacing" textLength="128.167" x="462.92" y="546.8851">Create travel path</text></g><!--entity pcForce--><g id="elem_pcForce"><rect fill="#F1F1F1" height="46.2969" rx="2.5" ry="2.5" style="stroke:#181818;stroke-width:0.5;" width="230.7842" x="181.61" y="388.6"/><rect fill="#F1F1F1" height="10" style="stroke:#181818;stroke-width:0.5;" width="15" x="392.3942" y="393.6"/><rect fill="#F1F1F1" height="2" style="stroke:#181818;stroke-width:0.5;" width="4" x="390.3942" y="395.6"/><rect fill="#F1F1F1" height="2" style="stroke:#181818;stroke-width:0.5;" width="4" x="390.3942" y="399.6"/><text fill="#000000" font-family="sans-serif" font-size="14" lengthAdjust="spacing" textLength="190.7842" x="196.61" y="421.5951">Measure used force on tool</text></g><!--link opPut to vision--><g id="link_opPut_vision"><path d="M398.48,106.75 C483.47,137.48 628.9876,190.1096 713.9376,220.8296 " fill="none" id="opPut-to-vision" style="stroke:#181818;stroke-width:1.0;"/><polygon fill="#181818" points="719.58,222.87,712.4767,216.0478,714.878,221.1696,709.7561,223.571,719.58,222.87" style="stroke:#181818;stroke-width:1.0;"/><text fill="#000000" font-family="sans-serif" font-size="13" lengthAdjust="spacing" textLength="84.4746" x="520" y="149.3669">1.Scans gear</text></g><!--link vision to pcDimensions--><g id="link_vision_pcDimensions"><path d="M672.79,255.26 C606.51,262.53 530.81,276.24 510,301.6 C489.77,326.25 501.8714,359.2111 515.0814,383.2611 " fill="none" id="vision-to-pcDimensions" style="stroke:#181818;stroke-width:1.0;"/><polygon fill="#181818" points="517.97,388.52,517.1431,378.7059,515.5629,384.1376,510.1312,382.5574,517.97,388.52" style="stroke:#181818;stroke-width:1.0;"/><text fill="#000000" font-family="sans-serif" font-size="13" lengthAdjust="spacing" textLength="123.3921" x="511" y="314.6669">2.Send dimensions</text></g><!--link pcDimensions to pcPath--><g id="link_pcDimensions_pcPath"><path d="M532,435.36 C532,457.61 532,485.37 532,507.57 " fill="none" id="pcDimensions-to-pcPath" style="stroke:#181818;stroke-width:1.0;"/><polygon fill="#181818" points="532,513.57,536,504.57,532,508.57,528,504.57,532,513.57" style="stroke:#181818;stroke-width:1.0;"/><text fill="#000000" font-family="sans-serif" font-size="13" lengthAdjust="spacing" textLength="77.1685" x="533" y="479.9569">Create path</text></g><!--link pcPath to robot--><g id="link_pcPath_robot"><path d="M616.32,530.95 C723.5,522.74 900.28,502.81 947,458.89 C1000.49,408.61 1003.5936,319.1051 1001.8336,275.7951 " fill="none" id="pcPath-to-robot" style="stroke:#181818;stroke-width:1.0;"/><polygon fill="#181818" points="1001.59,269.8,997.9587,278.955,1001.793,274.7959,1005.9521,278.6302,1001.59,269.8" style="stroke:#181818;stroke-width:1.0;"/><text fill="#000000" font-family="sans-serif" font-size="13" lengthAdjust="spacing" textLength="99.2012" x="1000" y="416.3069">Deburr on path</text></g><!--link robot to tool--><g id="link_robot_tool"><path d="M958.69,269.93 C943.44,278.97 926.39,290 912,301.6 C878.83,328.32 849.492,360.3721 829.562,383.6521 " fill="none" id="robot-to-tool" style="stroke:#181818;stroke-width:1.0;"/><polygon fill="#181818" points="825.66,388.21,834.5516,383.9745,828.9117,384.4118,828.4744,378.7718,825.66,388.21" style="stroke:#181818;stroke-width:1.0;"/><text fill="#000000" font-family="sans-serif" font-size="13" lengthAdjust="spacing" textLength="60.5059" x="913" y="314.6669">Start tool</text></g><!--link tool to tool--><g id="link_tool_tool"><path d="M842.19,400.23 C860.38,398.46 876.79,402.3 876.79,411.74 C876.79,421.19 866.3518,425.6111 848.1618,423.8411 " fill="none" id="tool-to-tool" style="stroke:#181818;stroke-width:1.0;"/><polygon fill="#181818" points="842.19,423.26,850.7603,428.1128,847.1665,423.7442,851.5351,420.1504,842.19,423.26" style="stroke:#181818;stroke-width:1.0;"/><text fill="#000000" font-family="sans-serif" font-size="13" lengthAdjust="spacing" textLength="58.3032" x="882.79" y="416.3069">Stop tool</text></g><!--link tool to pcForce--><g id="link_tool_pcForce"><path d="M795.78,388.3 C784.29,367.32 764.26,337.91 737,324.87 C675.46,295.43 495.4,307.17 430,326.6 C389,338.78 353.2198,363.9258 327.8998,384.6858 " fill="none" id="tool-to-pcForce" style="stroke:#181818;stroke-width:1.0;"/><polygon fill="#181818" points="323.26,388.49,332.7559,385.8769,327.1265,385.3198,327.6836,379.6905,323.26,388.49" style="stroke:#181818;stroke-width:1.0;"/><text fill="#000000" font-family="sans-serif" font-size="13" lengthAdjust="spacing" textLength="92.6885" x="644" y="314.6669">Measure force</text></g><!--link pcForce to opQuality--><g id="link_pcForce_opQuality"><path d="M308.27,388.35 C330.07,341.55 371.74,231.88 323,161.3 C313.64,147.75 235.4021,123.438 171.8321,105.398 " fill="none" id="pcForce-to-opQuality" style="stroke:#181818;stroke-width:1.0;"/><polygon fill="#181818" points="166.06,103.76,173.6261,110.0651,170.8701,105.125,175.8101,102.369,166.06,103.76" style="stroke:#181818;stroke-width:1.0;"/><text fill="#000000" font-family="sans-serif" font-size="13" lengthAdjust="spacing" textLength="66.1553" x="346" y="251.0169">Send data</text></g><!--link opQuality to opGet--><g id="link_opQuality_opGet"><path d="M103.73,106.58 C117.07,137.31 138.5012,186.686 151.8512,217.446 " fill="none" id="opQuality-to-opGet" style="stroke:#181818;stroke-width:1.0;"/><polygon fill="#181818" points="154.24,222.95,154.3262,213.1015,152.2494,218.3633,146.9875,216.2865,154.24,222.95" style="stroke:#181818;stroke-width:1.0;"/><text fill="#000000" font-family="sans-serif" font-size="13" lengthAdjust="spacing" textLength="124.1348" x="124" y="149.3669">Operator gets gear</text></g><!--SRC=[PPAnJiCm48PtFyN9Uol1oC10go86H54H2sAu9jVM8h4j-rofGhmxETi9RSda_FVTvRDZZyqNxWdqYwU0x8A6RmN3yp46u1D7s1C6C9OTzDWSZALFm0ZEhnCN_3LXP_W4ZRCSN5VBDRsQkATneaiCRdSryv5O_IZbHxK7Z0IhW3rDSWiCJD6WXU2sZdDZNfNocwi6F2nAz6wYSHRYAJBr41kqHI5Znroy-EYJRLFaOB23zMBwxf9sWoUqfYShBJ6t-sOv1TKl43811pnI1nxvKC7ri2p8Cs5CWI15Qc7dGaCm-F5exfkLPEAayZ73R7PVHU4EzCryC-r1gveBSYuZuEryGxOzKzRg0YazuYLq5HTZuN8iH3vS0PQqJI68Qc5AGH1H5sB3my_9RrhbxBBe_7MjRbNAuw7ayn21KX5gkanvJDuICchrbnTgk3r2_Bzi-XS0]--></g></svg>